<svg width="30" height="15" viewBox="0 0 30 15" fill="none" xmlns="http://www.w3.org/2000/svg">
<path d="M21.5996 0.25C21.6494 0.25 21.6982 0.264412 21.7402 0.291016C21.7613 0.304372 21.7805 0.320332 21.7969 0.338867L21.8369 0.400391L21.8398 0.40625L24.0244 4.73242L24.083 4.84961L24.2119 4.86719L29.1104 5.56348C29.3011 5.59024 29.4149 5.83046 29.3125 6.01172L29.2549 6.08496L25.7324 9.44141L25.6357 9.5332L25.6592 9.66504L26.4893 14.3955C26.5302 14.628 26.3408 14.7741 26.1729 14.7451L26.1035 14.7217L21.7148 12.4658L21.6006 12.4072L21.4863 12.4658L17.0957 14.7217C16.9174 14.8128 16.6656 14.6622 16.7109 14.3965L17.54 9.66602L17.5635 9.53418L17.4668 9.44238L13.9434 6.08594H13.9443C13.7782 5.92737 13.847 5.67115 14.0127 5.58887L14.0889 5.56445H14.0898L18.9873 4.86914L19.1162 4.85059L19.1758 4.7334L21.3594 0.40625L21.3623 0.400391C21.3836 0.355521 21.417 0.31761 21.459 0.291016C21.501 0.26444 21.5499 0.250029 21.5996 0.25Z" fill="url(#paint0_linear_113_194)" fill-opacity="0.3" stroke="url(#paint1_linear_113_194)" stroke-width="0.5"/>
<mask id="mask0_113_194" style="mask-type:alpha" maskUnits="userSpaceOnUse" x="6" y="0" width="16" height="15">
<path d="M14.0654 0.75C14.0872 0.75 14.1092 0.752772 14.1299 0.758789L14.1885 0.785156C14.2068 0.796744 14.2231 0.811085 14.2373 0.827148L14.2725 0.880859L14.2754 0.885742L16.3135 4.9248L16.3721 5.04102L16.502 5.05957L21.0723 5.70898H21.0732C21.2383 5.73229 21.3398 5.9427 21.249 6.10254L21.1982 6.16699L17.9111 9.29883L17.8145 9.3916L17.8379 9.52344L18.6123 13.9375C18.6486 14.1439 18.4819 14.2687 18.3369 14.2441L18.2764 14.2246L14.1807 12.1191L14.0664 12.0605L13.9521 12.1191L9.85547 14.2246C9.70289 14.3029 9.47922 14.1748 9.51953 13.9385L10.2939 9.52441L10.3174 9.39258L10.2197 9.2998L6.93262 6.16797C6.78571 6.02776 6.84811 5.8024 6.99219 5.73047L7.05859 5.70996H7.05957L11.6299 5.06055L11.7598 5.04199L11.8184 4.92578L13.8555 0.885742L13.8564 0.886719L13.8594 0.880859C13.8686 0.861333 13.8803 0.843173 13.8945 0.827148L13.9434 0.785156C13.9798 0.762092 14.0223 0.750079 14.0654 0.75Z" fill="url(#paint2_linear_113_194)" fill-opacity="0.3" stroke="url(#paint3_linear_113_194)" stroke-width="0.5"/>
</mask>
<g mask="url(#mask0_113_194)">
<path d="M14.0654 0.5C14.1559 0.5 14.2448 0.525896 14.3213 0.574219C14.3978 0.6226 14.4592 0.691684 14.498 0.773438L16.5361 4.81152L17.0742 4.8877L14.0547 5.31738C13.6137 5.37938 13.4425 5.95358 13.7715 6.26758L17.2939 9.62305L16.5889 13.6387L14.0664 12.3418L9.96875 14.4473C9.63112 14.6199 9.25078 14.3459 9.26465 13.9697L9.27344 13.8955L10.0479 9.48047L6.75977 6.34863C6.45297 6.05565 6.61219 5.52003 7.02344 5.46191L11.5947 4.8125L13.6328 0.773438C13.6716 0.691673 13.7331 0.622638 13.8096 0.574219C13.886 0.525856 13.975 0.500069 14.0654 0.5Z" fill="url(#paint4_linear_113_194)"/>
</g>
<mask id="mask1_113_194" style="mask-type:alpha" maskUnits="userSpaceOnUse" x="0" y="1" width="15" height="13">
<path d="M7.13184 1.25C7.15033 1.25 7.16894 1.25269 7.18652 1.25781L7.23633 1.28027C7.2517 1.29002 7.26537 1.30197 7.27734 1.31543L7.30762 1.36133L7.31055 1.36621L9.20312 5.11621L9.26172 5.2334L9.3916 5.25098L13.6357 5.85449H13.6367C13.7758 5.87428 13.8655 6.05499 13.7871 6.19336L13.7432 6.24902L10.6904 9.15723L10.5938 9.25L10.6172 9.38184L11.3359 13.4805C11.3723 13.6869 11.1774 13.794 11.0498 13.7285H11.0508L7.24707 11.7734L7.13281 11.7148L7.01855 11.7734L3.21387 13.7285C3.08693 13.7933 2.89242 13.6882 2.92773 13.4814L3.64746 9.38281L3.66992 9.25098L3.57324 9.1582L0.520508 6.25C0.392842 6.12794 0.449495 5.93431 0.572266 5.87305L0.62793 5.85547L4.87305 5.25195L5.00195 5.2334L5.06055 5.11719L6.95312 1.36621L6.9541 1.36719L6.95605 1.36133C6.96394 1.3447 6.97425 1.32907 6.98633 1.31543L7.02832 1.28027C7.05934 1.26067 7.09515 1.25006 7.13184 1.25Z" fill="url(#paint5_linear_113_194)" fill-opacity="0.3" stroke="url(#paint6_linear_113_194)" stroke-width="0.5"/>
</mask>
<g mask="url(#mask1_113_194)">
<path d="M7.13184 1C7.21596 1 7.29902 1.02339 7.37012 1.06836C7.4412 1.11333 7.49813 1.17791 7.53418 1.25391L9.42676 5.00391L9.83594 5.06152L7.02344 5.46191C6.61222 5.52005 6.453 6.05565 6.75977 6.34863L10.0479 9.48047L9.40137 13.1611L7.13281 11.9951L3.32812 13.9502C3.01454 14.1111 2.66109 13.8572 2.67383 13.5078L2.68164 13.4385L3.40137 9.33984L0.347656 6.43066C0.0631341 6.15856 0.21103 5.66138 0.592773 5.60742L4.83789 5.00488L6.73047 1.25391C6.76653 1.17794 6.82347 1.11331 6.89453 1.06836C6.9655 1.02354 7.0479 1.00005 7.13184 1ZM11.5801 13.6191C11.5285 13.8861 11.2602 14.0657 10.999 13.9775L10.9365 13.9502L11.5801 13.6191Z" fill="url(#paint7_linear_113_194)"/>
</g>
<defs>
<linearGradient id="paint0_linear_113_194" x1="21.5998" y1="0" x2="21.5998" y2="15.0011" gradientUnits="userSpaceOnUse">
<stop stop-color="white"/>
<stop offset="1" stop-color="white" stop-opacity="0"/>
</linearGradient>
<linearGradient id="paint1_linear_113_194" x1="21.5998" y1="0" x2="21.5998" y2="15.0011" gradientUnits="userSpaceOnUse">
<stop offset="0.15" stop-color="white"/>
<stop offset="1" stop-color="white" stop-opacity="0"/>
</linearGradient>
<linearGradient id="paint2_linear_113_194" x1="14.0658" y1="0.5" x2="14.0658" y2="14.5" gradientUnits="userSpaceOnUse">
<stop stop-color="#CFAAF8"/>
<stop offset="1" stop-color="#CFAAF8" stop-opacity="0"/>
</linearGradient>
<linearGradient id="paint3_linear_113_194" x1="14.0658" y1="0.5" x2="14.0658" y2="14.5" gradientUnits="userSpaceOnUse">
<stop offset="0.15" stop-color="white"/>
<stop offset="1" stop-color="white" stop-opacity="0"/>
</linearGradient>
<linearGradient id="paint4_linear_113_194" x1="14.0659" y1="0.5" x2="14.0659" y2="14.4997" gradientUnits="userSpaceOnUse">
<stop stop-color="white"/>
</linearGradient>
<linearGradient id="paint5_linear_113_194" x1="7.13215" y1="1" x2="7.13215" y2="14" gradientUnits="userSpaceOnUse">
<stop stop-color="#CFAAF8"/>
<stop offset="1" stop-color="#CFAAF8" stop-opacity="0"/>
</linearGradient>
<linearGradient id="paint6_linear_113_194" x1="7.13215" y1="1" x2="7.13215" y2="14" gradientUnits="userSpaceOnUse">
<stop offset="0.15" stop-color="white"/>
<stop offset="1" stop-color="white" stop-opacity="0"/>
</linearGradient>
<linearGradient id="paint7_linear_113_194" x1="7.13215" y1="1" x2="7.13215" y2="14" gradientUnits="userSpaceOnUse">
<stop stop-color="white"/>
</linearGradient>
</defs>
</svg>
