<svg width="726" height="527" viewBox="0 0 726 527" fill="none" xmlns="http://www.w3.org/2000/svg">
<mask id="mask0_110_83" style="mask-type:alpha" maskUnits="userSpaceOnUse" x="0" y="3" width="389" height="457">
<path d="M206.867 25.9736C217.575 -4.00441 260.141 -4.00404 270.849 25.9736L271.098 26.6933L312.574 150.539L388.906 151.226L386.473 158.49L244.323 159.77C211.699 160.065 198.177 201.681 224.398 221.095L338.647 305.684L301.897 422.353L238.858 377.415L132.508 453.229C105.942 472.168 70.5408 446.447 80.3423 415.329L119.582 290.755L14.6147 213.039C-11.6063 193.625 1.91561 152.009 34.5396 151.715L165.141 150.539L206.618 26.6933L206.867 25.9736ZM118.208 433.937C118.085 434.018 117.961 434.096 117.836 434.171C117.961 434.096 118.085 434.019 118.208 433.938L118.577 433.687L118.208 433.937ZM105.5 415.343L104.139 419.665L145.472 288.447L105.5 415.343ZM244.382 351.887L244.333 351.853C244.29 351.825 244.247 351.798 244.204 351.77C244.264 351.808 244.323 351.847 244.382 351.887ZM233.611 351.709C233.555 351.744 233.499 351.779 233.443 351.815C233.499 351.779 233.555 351.744 233.611 351.709ZM244.147 351.735C244.088 351.699 244.029 351.662 243.969 351.627C244.029 351.662 244.088 351.699 244.147 351.735ZM233.901 351.536C233.822 351.581 233.744 351.628 233.666 351.676C233.744 351.628 233.822 351.581 233.901 351.536ZM243.875 351.571C243.831 351.546 243.788 351.522 243.745 351.498C243.788 351.522 243.831 351.546 243.875 351.571ZM235.478 350.81C235.357 350.853 235.236 350.899 235.117 350.947L235.479 350.81C235.6 350.766 235.722 350.724 235.844 350.686L235.478 350.81ZM242.237 350.81C242.358 350.853 242.479 350.899 242.599 350.947L242.238 350.81C242.116 350.766 241.994 350.724 241.872 350.686L242.237 350.81ZM237.961 201.226C238.188 201.425 238.427 201.619 238.679 201.806L358.475 290.501L238.679 201.807C238.427 201.62 238.189 201.425 237.961 201.226ZM237.209 200.492C237.168 200.448 237.127 200.402 237.086 200.357C237.127 200.403 237.168 200.448 237.209 200.492ZM236.888 200.13C236.864 200.101 236.837 200.073 236.813 200.044L236.79 200.015C236.822 200.054 236.855 200.091 236.888 200.13ZM236.102 199.062L236.323 199.395C236.247 199.285 236.173 199.174 236.102 199.062L235.897 198.723C235.963 198.837 236.031 198.949 236.102 199.062ZM241.994 184.099C241.744 184.163 241.5 184.238 241.261 184.32C241.373 184.282 241.486 184.244 241.601 184.209L241.994 184.099ZM31.8179 176.153C31.7033 176.188 31.5902 176.226 31.478 176.265C31.7168 176.182 31.9608 176.108 32.2104 176.043L31.8179 176.153ZM234.124 351.413L234.059 351.447C234.006 351.476 233.953 351.506 233.901 351.536C233.975 351.494 234.049 351.453 234.124 351.413Z" fill="url(#paint0_linear_110_83)"/>
</mask>
<g mask="url(#mask0_110_83)">
<path d="M218.157 30.0371C225.086 10.6399 252.628 10.6401 259.558 30.0371L259.719 30.5029L303.911 162.46L443.067 163.714C464.177 163.904 472.926 190.832 455.96 203.394L344.117 286.2L385.927 418.934L386.07 419.404C391.912 439.327 369.229 455.616 352.173 443.457L238.857 362.677L125.542 443.457C108.352 455.711 85.4456 439.068 91.7881 418.933L133.597 286.2L21.7549 203.394C4.78827 190.832 13.5377 163.904 34.6475 163.714L173.803 162.46L217.996 30.5029L218.157 30.0371Z" fill="url(#paint1_linear_110_83)" stroke="url(#paint2_linear_110_83)" stroke-width="24"/>
</g>
<path d="M443.157 27.0371C450.086 7.64003 477.628 7.63998 484.558 27.0371L484.719 27.5029L532.579 170.412L683.284 171.77C704.394 171.96 713.143 198.887 696.177 211.449L575.052 301.129L620.332 444.877C626.675 465.012 603.768 481.655 586.578 469.401L463.856 381.917L341.137 469.401C323.947 481.655 301.04 465.012 307.383 444.877L352.662 301.129L231.538 211.449C214.572 198.887 223.321 171.96 244.431 171.77L395.135 170.412L442.996 27.5029L443.157 27.0371Z" fill="url(#paint3_linear_110_83)" stroke="url(#paint4_linear_110_83)" stroke-width="24"/>
<defs>
<linearGradient id="paint0_linear_110_83" x1="233.778" y1="6" x2="233.778" y2="498" gradientUnits="userSpaceOnUse">
<stop offset="1" stop-color="#FFC83D"/>
</linearGradient>
<linearGradient id="paint1_linear_110_83" x1="238.857" y1="6" x2="238.857" y2="498" gradientUnits="userSpaceOnUse">
<stop stop-color="#FFC83D"/>
<stop offset="1" stop-color="#FFC83D" stop-opacity="0"/>
</linearGradient>
<linearGradient id="paint2_linear_110_83" x1="238.857" y1="6" x2="238.857" y2="498" gradientUnits="userSpaceOnUse">
<stop/>
<stop offset="1" stop-opacity="0"/>
</linearGradient>
<linearGradient id="paint3_linear_110_83" x1="463.857" y1="3" x2="463.857" y2="527" gradientUnits="userSpaceOnUse">
<stop stop-color="#FFC83D"/>
<stop offset="1" stop-color="#FFC83D" stop-opacity="0"/>
</linearGradient>
<linearGradient id="paint4_linear_110_83" x1="463.857" y1="3" x2="463.857" y2="527" gradientUnits="userSpaceOnUse">
<stop/>
<stop offset="1" stop-opacity="0"/>
</linearGradient>
</defs>
</svg>
