<svg width="1280" height="527" viewBox="0 0 1280 527" fill="none" xmlns="http://www.w3.org/2000/svg">
<mask id="mask0_109_714" style="mask-type:alpha" maskUnits="userSpaceOnUse" x="0" y="37" width="337" height="370">
<path d="M161.388 59.9716C172.096 29.9938 214.662 29.9939 225.37 59.9716L225.618 60.6914L254.91 148.157L205.494 148.603C172.87 148.897 159.348 190.513 185.568 209.927L271.971 273.897L239.672 376.439C239.563 376.785 239.461 377.13 239.363 377.475L193.378 344.692L115.242 400.394C88.676 419.332 53.2753 393.612 63.0772 362.494L91.9063 270.969L14.7862 213.87C-11.4345 194.456 2.08787 152.84 34.712 152.546L130.665 151.682L161.139 60.6914L161.388 59.9716ZM296.453 276.058L262.564 383.649C262.407 384.146 262.29 384.638 262.209 385.123L262.154 385.485C262.233 384.883 262.367 384.27 262.563 383.649L264.829 376.452L296.453 276.058ZM117.796 268.661L88.2344 362.507L85.9678 369.704C85.7724 370.325 85.6379 370.938 85.5596 371.54L85.6143 371.178C85.6953 370.692 85.8125 370.2 85.9688 369.704L117.797 268.661C117.833 268.547 117.866 268.432 117.898 268.316L117.796 268.661ZM198.879 319.149C198.857 319.135 198.835 319.121 198.813 319.106C198.835 319.121 198.857 319.135 198.879 319.149ZM188.025 319.054C187.992 319.075 187.96 319.096 187.927 319.117C187.96 319.096 187.992 319.075 188.025 319.054ZM198.569 318.953C198.541 318.936 198.513 318.919 198.484 318.902C198.513 318.919 198.541 318.936 198.569 318.953ZM188.452 318.799C188.428 318.812 188.404 318.825 188.38 318.839C188.404 318.825 188.428 318.812 188.452 318.799ZM189.28 318.378C189.26 318.387 189.24 318.397 189.22 318.406C189.256 318.39 189.293 318.373 189.329 318.356L189.28 318.378ZM196.05 317.863C196.288 317.929 196.525 318.004 196.759 318.088L196.393 317.964C196.279 317.928 196.165 317.895 196.05 317.863ZM190.614 317.89C190.555 317.907 190.495 317.925 190.436 317.943C190.495 317.925 190.555 317.907 190.614 317.89ZM190.901 317.811C190.829 317.83 190.757 317.849 190.686 317.869C190.757 317.849 190.829 317.83 190.901 317.811ZM191.107 317.761C191.056 317.772 191.006 317.785 190.955 317.798C191.027 317.78 191.1 317.762 191.172 317.746L191.107 317.761ZM192.694 317.524C192.654 317.527 192.614 317.53 192.573 317.533C192.614 317.53 192.654 317.527 192.694 317.524ZM193.046 317.506C193 317.507 192.954 317.51 192.908 317.512C192.954 317.51 193 317.507 193.046 317.506ZM118.254 265.962C118.242 266.348 118.209 266.735 118.151 267.122C118.228 266.607 118.263 266.09 118.259 265.576L118.254 265.962ZM118.183 264.428C118.198 264.554 118.212 264.681 118.223 264.809L118.184 264.427C118.168 264.3 118.149 264.174 118.129 264.049L118.183 264.428ZM117.88 262.932C117.949 263.176 118.009 263.423 118.06 263.673L117.978 263.3C117.948 263.176 117.915 263.053 117.88 262.931V262.932ZM295.988 262.161L296.231 262.463C296.152 262.361 296.07 262.261 295.987 262.162L295.732 261.869C295.82 261.965 295.905 262.062 295.988 262.161ZM294.894 261.046L295.185 261.311C295.09 261.221 294.993 261.133 294.894 261.047L294.589 260.792C294.692 260.875 294.794 260.959 294.894 261.046ZM336.709 152.407L332.586 164.72L332.451 165.095L332.585 164.72L336.708 152.407H336.709ZM202.711 67.8925C202.763 68.0303 202.814 68.1702 202.861 68.3125C202.766 68.0282 202.662 67.7528 202.548 67.4863L202.711 67.8925ZM201.534 65.6533C201.612 65.7644 201.688 65.8775 201.762 65.9931L201.535 65.6533C201.458 65.5423 201.378 65.4337 201.297 65.3271L201.534 65.6533ZM200.815 64.7441L200.789 64.7138C200.761 64.683 200.732 64.6534 200.704 64.623C200.741 64.663 200.778 64.7033 200.815 64.7441ZM200.232 64.1464L200.24 64.1543C200.374 64.2802 200.504 64.4111 200.632 64.5459C200.502 64.4084 200.369 64.2746 200.232 64.1464ZM199.405 63.4541L199.354 63.414C199.318 63.3877 199.281 63.3626 199.245 63.3369C199.299 63.3752 199.352 63.4145 199.405 63.4541ZM199.168 63.2822C199.121 63.2494 199.074 63.2174 199.026 63.1855C199.074 63.2174 199.121 63.2494 199.168 63.2822ZM198.927 63.1191C198.873 63.0836 198.818 63.049 198.763 63.0146C198.818 63.049 198.873 63.0836 198.927 63.1191ZM196.682 62.0283C196.918 62.1083 197.152 62.1971 197.383 62.2949L197.035 62.1543C196.801 62.0654 196.564 61.9861 196.325 61.915L196.682 62.0283ZM195.235 61.6552L194.867 61.5947C194.809 61.5862 194.75 61.5787 194.691 61.5713C194.873 61.5945 195.055 61.6225 195.235 61.6552ZM194.664 61.5683C194.614 61.5621 194.564 61.5562 194.514 61.5507C194.564 61.5563 194.614 61.5621 194.664 61.5683ZM196.05 317.863C195.97 317.841 195.889 317.821 195.809 317.801C195.889 317.821 195.97 317.841 196.05 317.863Z" fill="url(#paint0_linear_109_714)"/>
</mask>
<g mask="url(#mask0_109_714)">
<path d="M172.68 64.0361C179.609 44.639 207.151 44.6389 214.08 64.0361L214.241 64.502L247.431 163.604L351.938 164.545L352.432 164.555C373.021 165.151 381.531 191.345 365.225 203.929L364.832 204.226L280.835 266.415L312.235 366.1L312.379 366.57C318.175 386.336 295.893 402.525 278.886 390.905L278.481 390.623L193.379 329.955L108.277 390.623C91.0875 402.877 68.1813 386.235 74.5234 366.1L105.923 266.415L21.9277 204.226C4.96119 191.664 13.7105 164.735 34.8203 164.545L139.328 163.604L172.519 64.502L172.68 64.0361Z" fill="url(#paint1_linear_109_714)" stroke="url(#paint2_linear_109_714)" stroke-width="24"/>
</g>
<mask id="mask1_109_714" style="mask-type:alpha" maskUnits="userSpaceOnUse" x="171" y="22" width="364" height="399">
<path d="M347.388 44.9736C358.096 14.996 400.661 14.9956 411.37 44.9736L411.619 45.6933L445.76 147.636L509.456 148.209L509.33 148.587L390.278 149.659C357.654 149.953 344.132 191.569 370.353 210.983L466.037 281.827L432.112 389.527L379.379 351.934L291.838 414.341C265.272 433.279 229.871 407.559 239.673 376.44L271.972 273.898L185.569 209.928C159.349 190.514 172.871 148.897 205.495 148.603L312.997 147.636L347.139 45.6933L347.388 44.9736ZM490.241 284.871L453.159 402.595L455.425 395.398L490.241 284.871ZM264.83 376.453L262.564 383.65C262.368 384.271 262.234 384.884 262.155 385.486L262.21 385.124C262.291 384.639 262.408 384.147 262.565 383.65L297.862 271.591L264.83 376.453ZM295.988 262.163C296.071 262.262 296.153 262.362 296.232 262.464L295.989 262.162C295.906 262.063 295.821 261.966 295.733 261.87L295.988 262.163ZM332.181 165.739C332.136 165.834 332.091 165.928 332.044 166.021C332.136 165.839 332.224 165.653 332.305 165.464L332.181 165.739ZM534.691 148.435L528.919 165.673C528.881 165.787 528.84 165.9 528.797 166.012L528.918 165.673L534.691 148.435H534.691ZM332.586 164.721L332.452 165.096L332.587 164.721L369.897 53.3144L332.586 164.721ZM372.239 49.4286C372.148 49.5221 372.058 49.6178 371.97 49.7157L372.239 49.4296C372.331 49.3363 372.423 49.245 372.518 49.1562L372.239 49.4286ZM386.52 49.4296C386.611 49.5229 386.701 49.618 386.789 49.7157L386.52 49.4286C386.428 49.3355 386.336 49.2449 386.241 49.1562L386.52 49.4296ZM374.036 47.9892C373.929 48.0559 373.822 48.125 373.717 48.1962L374.036 47.9902C374.144 47.9234 374.253 47.8591 374.362 47.7968L374.036 47.9892Z" fill="url(#paint3_linear_109_714)"/>
</mask>
<g mask="url(#mask1_109_714)">
<path d="M358.679 49.0371C365.608 29.6401 393.15 29.6399 400.079 49.0371L400.24 49.5029L437.098 159.557L553.155 160.602C574.1 160.79 582.877 187.301 566.44 199.985L566.048 200.282L472.77 269.344L507.64 380.045C513.932 400.023 491.431 416.563 474.289 404.851L473.886 404.568L379.379 337.196L284.872 404.568C267.682 416.822 244.776 400.18 251.118 380.045L285.987 269.344L192.71 200.282C175.744 187.72 184.493 160.792 205.603 160.602L321.659 159.557L358.518 49.5029L358.679 49.0371Z" fill="url(#paint4_linear_109_714)" stroke="url(#paint5_linear_109_714)" stroke-width="24"/>
</g>
<mask id="mask2_109_714" style="mask-type:alpha" maskUnits="userSpaceOnUse" x="356" y="12" width="382" height="428">
<path d="M547.388 34.9736C558.096 4.99574 600.662 4.99584 611.37 34.9736L611.619 35.6933L649.427 148.587L719.106 149.214L718.662 150.539L588.061 151.715C555.437 152.009 541.915 193.625 568.136 213.039L673.103 290.755L637.03 405.273L579.379 364.175L482.434 433.285C455.867 452.223 420.466 426.503 430.268 395.385L466.037 281.827L370.353 210.983C344.132 191.569 357.654 149.953 390.278 149.659L509.33 148.587L547.139 35.6933L547.388 34.9736ZM696.899 295.095L657.579 419.922H657.578L659.021 415.343L696.899 295.095ZM455.425 395.398L453.159 402.595L491.928 279.519L455.425 395.398ZM575.003 337.99C574.965 338.009 574.927 338.027 574.889 338.046C574.927 338.027 574.965 338.009 575.003 337.99ZM575.28 337.859C575.253 337.872 575.226 337.885 575.198 337.897C575.242 337.877 575.285 337.857 575.329 337.838L575.28 337.859ZM696.025 277.903L696.316 278.168C696.221 278.078 696.124 277.99 696.025 277.904L695.721 277.649C695.824 277.732 695.926 277.817 696.025 277.903ZM585.827 176.019C585.942 175.991 586.059 175.964 586.176 175.939C586.059 175.964 585.942 175.991 585.827 176.019ZM586.254 175.923C586.358 175.902 586.462 175.882 586.567 175.864C586.462 175.882 586.358 175.902 586.254 175.923ZM586.607 175.857C586.725 175.837 586.845 175.819 586.966 175.804L586.986 175.801C586.859 175.817 586.732 175.836 586.607 175.857ZM737.784 168.77C737.769 168.803 737.752 168.835 737.736 168.867C737.752 168.835 737.769 168.803 737.784 168.77ZM528.918 165.673L528.797 166.012C528.84 165.9 528.881 165.787 528.919 165.673L569.897 43.3144L528.918 165.673ZM572.239 39.4286C572.148 39.5221 572.058 39.6178 571.97 39.7157L572.239 39.4296C572.331 39.3363 572.423 39.245 572.518 39.1562L572.239 39.4286ZM586.52 39.4296C586.611 39.5229 586.701 39.618 586.789 39.7157L586.52 39.4286C586.428 39.3355 586.336 39.2449 586.241 39.1562L586.52 39.4296ZM574.036 37.9892C573.929 38.0559 573.822 38.125 573.717 38.1962L574.036 37.9902C574.144 37.9234 574.253 37.8591 574.362 37.7968L574.036 37.9892ZM584.723 37.9902C584.83 38.0567 584.936 38.1253 585.041 38.1962L584.723 37.9892C584.615 37.9226 584.506 37.859 584.397 37.7968L584.723 37.9902Z" fill="url(#paint6_linear_109_714)"/>
</mask>
<g mask="url(#mask2_109_714)">
<path d="M558.679 39.0371C565.608 19.64 593.15 19.64 600.079 39.0371L600.24 39.5029L640.765 160.509L768.372 161.658C789.482 161.848 798.231 188.776 781.265 201.338L678.704 277.272L717.044 398.989L717.188 399.46C723.029 419.382 700.346 435.671 683.29 423.513L579.379 349.437L475.468 423.513C458.278 435.767 435.372 419.125 441.714 398.989L480.053 277.272L377.493 201.338C360.527 188.776 369.276 161.848 390.386 161.658L517.992 160.509L558.518 39.5029L558.679 39.0371Z" fill="url(#paint7_linear_109_714)" stroke="url(#paint8_linear_109_714)" stroke-width="24"/>
</g>
<mask id="mask3_109_714" style="mask-type:alpha" maskUnits="userSpaceOnUse" x="554" y="3" width="397" height="457">
<path d="M760.388 25.9735C771.097 -4.00434 813.662 -4.00406 824.371 25.9735L824.62 26.6933L866.095 150.539L942.427 151.225L939.995 158.49L843.738 159.356L801.862 34.3144C801.814 34.1722 801.764 34.0322 801.711 33.8944L801.861 34.3144L843.738 159.356L797.844 159.77C765.22 160.064 751.698 201.681 777.919 221.095L892.168 305.684L855.418 422.353L792.379 377.415L686.03 453.229C659.463 472.168 624.062 446.447 633.864 415.329L673.103 290.755L568.136 213.039C541.915 193.625 555.437 152.009 588.061 151.715L718.663 150.539L760.139 26.6933L760.388 25.9735ZM670.617 434.574C670.731 434.517 670.845 434.457 670.959 434.395C670.845 434.457 670.732 434.517 670.617 434.574ZM786.574 352.079L672.097 433.686C671.75 433.934 671.397 434.153 671.042 434.35C671.272 434.222 671.503 434.087 671.73 433.938L672.098 433.686L786.575 352.079C786.683 352.002 786.792 351.927 786.903 351.854L786.574 352.079ZM696.025 277.904C696.124 277.991 696.222 278.078 696.317 278.168L696.025 277.903C695.926 277.817 695.824 277.732 695.721 277.649L696.025 277.904ZM791.847 201.534C791.736 201.445 791.628 201.353 791.522 201.261L791.847 201.534ZM791.485 201.227C791.407 201.159 791.33 201.089 791.254 201.018C791.33 201.089 791.407 201.159 791.485 201.227ZM791.155 200.925C791.065 200.839 790.976 200.752 790.89 200.664L790.889 200.663C790.975 200.752 791.064 200.838 791.155 200.925ZM793.295 184.976C793.393 184.923 793.492 184.871 793.592 184.821L793.295 184.976ZM795.591 184.08C795.699 184.053 795.807 184.028 795.917 184.004C795.807 184.027 795.699 184.053 795.591 184.08ZM796.051 183.976C796.148 183.957 796.244 183.938 796.342 183.921C796.244 183.938 796.148 183.957 796.051 183.976ZM797.177 183.812C796.906 183.837 796.64 183.871 796.378 183.915C796.501 183.894 796.624 183.876 796.749 183.859L797.177 183.812ZM950.589 182.389L950.191 182.399C950.419 182.397 950.646 182.385 950.872 182.368C950.778 182.375 950.684 182.384 950.589 182.389ZM586.536 175.87C586.43 175.889 586.325 175.908 586.221 175.93C586.325 175.908 586.43 175.888 586.536 175.87ZM586.965 175.804C586.835 175.821 586.706 175.84 586.578 175.862C586.709 175.84 586.841 175.82 586.974 175.803L586.965 175.804ZM783.781 32.3485C783.711 32.4683 783.644 32.5906 783.579 32.7148C783.71 32.466 783.849 32.226 783.997 31.995L783.781 32.3485ZM800.976 32.3485C801.046 32.4684 801.114 32.5904 801.179 32.7148L800.977 32.3485C800.907 32.2284 800.835 32.1107 800.761 31.995L800.976 32.3485ZM799.557 30.4687L799.519 30.4286C799.492 30.4006 799.464 30.3732 799.436 30.3456C799.477 30.3861 799.517 30.4273 799.557 30.4687ZM785.467 30.203C785.404 30.2635 785.342 30.3252 785.28 30.3876C785.342 30.3251 785.404 30.2635 785.467 30.203ZM799.349 30.2607C799.307 30.2197 799.264 30.1796 799.221 30.1396C799.264 30.1796 799.307 30.2197 799.349 30.2607ZM799.145 30.0673C799.094 30.0202 799.041 29.9744 798.989 29.9286C799.041 29.9744 799.094 30.0202 799.145 30.0673ZM785.804 29.8964C785.775 29.9218 785.746 29.9478 785.717 29.9735C785.757 29.9378 785.798 29.9021 785.838 29.8671L785.804 29.8964ZM797.722 28.9901C797.829 29.0566 797.936 29.1253 798.041 29.1962L797.722 28.9892C797.615 28.9225 797.506 28.859 797.396 28.7968L797.722 28.9901ZM785.637 30.0448C785.58 30.0968 785.523 30.1495 785.467 30.203C785.523 30.1495 785.58 30.0968 785.637 30.0448Z" fill="url(#paint9_linear_109_714)"/>
</mask>
<g mask="url(#mask3_109_714)">
<path d="M771.679 30.0371C778.608 10.6399 806.15 10.6401 813.079 30.0371L813.24 30.5029L857.433 162.46L996.589 163.714C1017.7 163.904 1026.45 190.832 1009.48 203.394L897.639 286.2L939.448 418.934L939.592 419.404C945.434 439.327 922.75 455.616 905.694 443.457L792.379 362.677L679.063 443.457C661.873 455.711 638.967 439.068 645.31 418.933L687.118 286.2L575.276 203.394C558.31 190.832 567.059 163.904 588.169 163.714L727.324 162.46L771.518 30.5029L771.679 30.0371Z" fill="url(#paint10_linear_109_714)" stroke="url(#paint11_linear_109_714)" stroke-width="24"/>
</g>
<path d="M996.679 27.0371C1003.61 7.64003 1031.15 7.63998 1038.08 27.0371L1038.24 27.5029L1086.1 170.412L1236.81 171.77C1257.92 171.96 1266.66 198.887 1249.7 211.449L1128.57 301.129L1173.85 444.877C1180.2 465.012 1157.29 481.655 1140.1 469.401L1017.38 381.917L894.658 469.401C877.468 481.655 854.562 465.012 860.904 444.877L906.184 301.129L785.06 211.449C768.093 198.887 776.842 171.96 797.952 171.77L948.656 170.412L996.518 27.5029L996.679 27.0371Z" fill="url(#paint12_linear_109_714)" stroke="url(#paint13_linear_109_714)" stroke-width="24"/>
<defs>
<linearGradient id="paint0_linear_109_714" x1="219.758" y1="61.4883" x2="219.758" y2="382.752" gradientUnits="userSpaceOnUse">
<stop stop-color="#FFC83D"/>
</linearGradient>
<linearGradient id="paint1_linear_109_714" x1="193.38" y1="61.4883" x2="193.38" y2="382.752" gradientUnits="userSpaceOnUse">
<stop stop-color="#FFC83D"/>
<stop offset="1" stop-color="#FFC83D" stop-opacity="0"/>
</linearGradient>
<linearGradient id="paint2_linear_109_714" x1="193.38" y1="61.4883" x2="193.38" y2="382.752" gradientUnits="userSpaceOnUse">
<stop/>
<stop offset="1" stop-opacity="0"/>
</linearGradient>
<linearGradient id="paint3_linear_109_714" x1="388.01" y1="25" x2="388.01" y2="453" gradientUnits="userSpaceOnUse">
<stop stop-color="#FFC83D"/>
</linearGradient>
<linearGradient id="paint4_linear_109_714" x1="379.379" y1="25" x2="379.379" y2="453" gradientUnits="userSpaceOnUse">
<stop stop-color="#FFC83D"/>
<stop offset="1" stop-color="#FFC83D" stop-opacity="0"/>
</linearGradient>
<linearGradient id="paint5_linear_109_714" x1="379.379" y1="25" x2="379.379" y2="453" gradientUnits="userSpaceOnUse">
<stop/>
<stop offset="1" stop-opacity="0"/>
</linearGradient>
<linearGradient id="paint6_linear_109_714" x1="590.859" y1="15" x2="590.859" y2="475" gradientUnits="userSpaceOnUse">
<stop stop-color="#FFC83D"/>
</linearGradient>
<linearGradient id="paint7_linear_109_714" x1="579.379" y1="15" x2="579.379" y2="475" gradientUnits="userSpaceOnUse">
<stop stop-color="#FFC83D"/>
<stop offset="1" stop-color="#FFC83D" stop-opacity="0"/>
</linearGradient>
<linearGradient id="paint8_linear_109_714" x1="579.379" y1="15" x2="579.379" y2="475" gradientUnits="userSpaceOnUse">
<stop/>
<stop offset="1" stop-opacity="0"/>
</linearGradient>
<linearGradient id="paint9_linear_109_714" x1="792.369" y1="6" x2="792.369" y2="498" gradientUnits="userSpaceOnUse">
<stop offset="1" stop-color="#FFC83D"/>
</linearGradient>
<linearGradient id="paint10_linear_109_714" x1="792.379" y1="6" x2="792.379" y2="498" gradientUnits="userSpaceOnUse">
<stop stop-color="#FFC83D"/>
<stop offset="1" stop-color="#FFC83D" stop-opacity="0"/>
</linearGradient>
<linearGradient id="paint11_linear_109_714" x1="792.379" y1="6" x2="792.379" y2="498" gradientUnits="userSpaceOnUse">
<stop/>
<stop offset="1" stop-opacity="0"/>
</linearGradient>
<linearGradient id="paint12_linear_109_714" x1="1017.38" y1="3" x2="1017.38" y2="527" gradientUnits="userSpaceOnUse">
<stop stop-color="#FFC83D"/>
<stop offset="1" stop-color="#FFC83D" stop-opacity="0"/>
</linearGradient>
<linearGradient id="paint13_linear_109_714" x1="1017.38" y1="3" x2="1017.38" y2="527" gradientUnits="userSpaceOnUse">
<stop/>
<stop offset="1" stop-opacity="0"/>
</linearGradient>
</defs>
</svg>
