<svg width="17" height="15" viewBox="0 0 17 15" fill="none" xmlns="http://www.w3.org/2000/svg">
<path d="M8.59961 0.25C8.64938 0.25 8.69817 0.264412 8.74023 0.291016C8.76134 0.304372 8.7805 0.320332 8.79688 0.338867L8.83691 0.400391L8.83984 0.40625L11.0244 4.73242L11.083 4.84961L11.2119 4.86719L16.1104 5.56348C16.3011 5.59024 16.4149 5.83046 16.3125 6.01172L16.2549 6.08496L12.7324 9.44141L12.6357 9.5332L12.6592 9.66504L13.4893 14.3955C13.5302 14.628 13.3408 14.7741 13.1729 14.7451L13.1035 14.7217L8.71484 12.4658L8.60059 12.4072L8.48633 12.4658L4.0957 14.7217C3.91744 14.8128 3.66562 14.6622 3.71094 14.3965L4.54004 9.66602L4.56348 9.53418L4.4668 9.44238L0.943359 6.08594H0.944336C0.77819 5.92737 0.846975 5.67115 1.0127 5.58887L1.08887 5.56445H1.08984L5.9873 4.86914L6.11621 4.85059L6.17578 4.7334L8.35938 0.40625L8.3623 0.400391C8.38359 0.355521 8.41705 0.31761 8.45898 0.291016C8.501 0.26444 8.54989 0.250029 8.59961 0.25Z" fill="url(#paint0_linear_113_194)" fill-opacity="0.3" stroke="url(#paint1_linear_113_194)" stroke-width="0.5"/>
<defs>
<linearGradient id="paint0_linear_113_194" x1="8.59976" y1="0" x2="8.59976" y2="15.0011" gradientUnits="userSpaceOnUse">
<stop stop-color="white"/>
<stop offset="1" stop-color="white" stop-opacity="0"/>
</linearGradient>
<linearGradient id="paint1_linear_113_194" x1="8.59976" y1="0" x2="8.59976" y2="15.0011" gradientUnits="userSpaceOnUse">
<stop offset="0.15" stop-color="white"/>
<stop offset="1" stop-color="white" stop-opacity="0"/>
</linearGradient>
</defs>
</svg>
