<svg width="1109" height="527" viewBox="0 0 1109 527" fill="none" xmlns="http://www.w3.org/2000/svg">
<mask id="mask0_110_42" style="mask-type:alpha" maskUnits="userSpaceOnUse" x="0" y="22" width="364" height="399">
<path d="M176.433 44.9736C187.141 14.996 229.706 14.9956 240.415 44.9736L240.664 45.6933L274.805 147.636L338.501 148.209L338.375 148.587L219.323 149.659C186.699 149.953 173.177 191.569 199.398 210.983L295.082 281.827L261.157 389.527L208.424 351.934L120.883 414.341C94.3167 433.279 58.916 407.559 68.7179 376.44L101.017 273.898L14.6144 209.928C-11.6063 190.514 1.9158 148.897 34.5401 148.603L142.042 147.636L176.184 45.6933L176.433 44.9736ZM319.286 284.871L282.204 402.595L284.47 395.398L319.286 284.871ZM93.8751 376.453L91.6085 383.65C91.4131 384.271 91.2785 384.884 91.2003 385.486L91.255 385.124C91.3359 384.639 91.4531 384.147 91.6095 383.65L126.907 271.591L93.8751 376.453ZM125.033 262.163C125.116 262.262 125.198 262.362 125.276 262.464L125.034 262.162C124.951 262.063 124.866 261.966 124.778 261.87L125.033 262.163ZM161.226 165.739C161.181 165.834 161.136 165.928 161.089 166.021C161.18 165.839 161.269 165.653 161.35 165.464L161.226 165.739ZM363.736 148.435L357.964 165.673C357.926 165.787 357.885 165.9 357.842 166.012L357.963 165.673L363.735 148.435H363.736ZM161.631 164.721L161.497 165.096L161.632 164.721L198.941 53.3144L161.631 164.721ZM201.284 49.4286C201.193 49.5221 201.103 49.6178 201.015 49.7157L201.284 49.4296C201.376 49.3363 201.468 49.245 201.563 49.1562L201.284 49.4286ZM215.565 49.4296C215.656 49.5229 215.746 49.618 215.834 49.7157L215.565 49.4286C215.473 49.3355 215.38 49.2449 215.286 49.1562L215.565 49.4296ZM203.081 47.9892C202.974 48.0559 202.867 48.125 202.762 48.1962L203.081 47.9902C203.189 47.9234 203.298 47.8591 203.407 47.7968L203.081 47.9892Z" fill="url(#paint0_linear_110_42)"/>
</mask>
<g mask="url(#mask0_110_42)">
<path d="M187.724 49.0371C194.653 29.6401 222.195 29.6399 229.124 49.0371L229.285 49.5029L266.143 159.557L382.2 160.602C403.145 160.79 411.922 187.301 395.485 199.985L395.093 200.282L301.814 269.344L336.685 380.045C342.977 400.023 320.476 416.563 303.334 404.851L302.931 404.568L208.424 337.196L113.917 404.568C96.7272 416.822 73.8209 400.18 80.1631 380.045L115.032 269.344L21.7549 200.282C4.78852 187.72 13.5377 160.792 34.6475 160.602L150.704 159.557L187.562 49.5029L187.724 49.0371Z" fill="url(#paint1_linear_110_42)" stroke="url(#paint2_linear_110_42)" stroke-width="24"/>
</g>
<mask id="mask1_110_42" style="mask-type:alpha" maskUnits="userSpaceOnUse" x="185" y="12" width="382" height="428">
<path d="M376.433 34.9736C387.141 4.99574 429.706 4.99584 440.415 34.9736L440.664 35.6933L478.472 148.587L548.15 149.214L547.707 150.539L417.106 151.715C384.482 152.009 370.96 193.625 397.181 213.039L502.148 290.755L466.075 405.273L408.424 364.175L311.479 433.285C284.912 452.223 249.511 426.503 259.313 395.385L295.082 281.827L199.398 210.983C173.177 191.569 186.699 149.953 219.323 149.659L338.375 148.587L376.184 35.6933L376.433 34.9736ZM525.943 295.095L486.624 419.922H486.623L488.066 415.343L525.943 295.095ZM284.47 395.398L282.204 402.595L320.973 279.519L284.47 395.398ZM404.048 337.99C404.01 338.009 403.972 338.027 403.934 338.046C403.972 338.027 404.01 338.009 404.048 337.99ZM404.325 337.859C404.298 337.872 404.271 337.885 404.243 337.897C404.287 337.877 404.33 337.857 404.374 337.838L404.325 337.859ZM525.07 277.903L525.361 278.168C525.266 278.078 525.169 277.99 525.07 277.904L524.766 277.649C524.869 277.732 524.971 277.817 525.07 277.903ZM414.872 176.019C414.987 175.991 415.104 175.964 415.221 175.939C415.103 175.964 414.987 175.991 414.872 176.019ZM415.299 175.923C415.403 175.902 415.507 175.882 415.612 175.864C415.507 175.882 415.403 175.902 415.299 175.923ZM415.651 175.857C415.77 175.837 415.89 175.819 416.011 175.804L416.031 175.801C415.904 175.817 415.777 175.836 415.651 175.857ZM566.829 168.77C566.814 168.803 566.797 168.835 566.781 168.867C566.797 168.835 566.814 168.803 566.829 168.77ZM357.963 165.673L357.842 166.012C357.885 165.9 357.926 165.787 357.964 165.673L398.941 43.3144L357.963 165.673ZM401.284 39.4286C401.193 39.5221 401.103 39.6178 401.015 39.7157L401.284 39.4296C401.376 39.3363 401.468 39.245 401.563 39.1562L401.284 39.4286ZM415.565 39.4296C415.656 39.5229 415.746 39.618 415.834 39.7157L415.565 39.4286C415.473 39.3355 415.38 39.2449 415.286 39.1562L415.565 39.4296ZM403.081 37.9892C402.974 38.0559 402.867 38.125 402.762 38.1962L403.081 37.9902C403.189 37.9234 403.298 37.8591 403.407 37.7968L403.081 37.9892ZM413.768 37.9902C413.875 38.0567 413.981 38.1253 414.086 38.1962L413.768 37.9892C413.66 37.9226 413.551 37.859 413.441 37.7968L413.768 37.9902Z" fill="url(#paint3_linear_110_42)"/>
</mask>
<g mask="url(#mask1_110_42)">
<path d="M387.724 39.0371C394.653 19.64 422.195 19.64 429.124 39.0371L429.285 39.5029L469.81 160.509L597.417 161.658C618.527 161.848 627.276 188.776 610.31 201.338L507.749 277.272L546.089 398.989L546.232 399.46C552.074 419.382 529.391 435.671 512.335 423.513L408.424 349.437L304.513 423.513C287.323 435.767 264.417 419.125 270.759 398.989L309.098 277.272L206.538 201.338C189.572 188.776 198.321 161.848 219.431 161.658L347.037 160.509L387.562 39.5029L387.724 39.0371Z" fill="url(#paint4_linear_110_42)" stroke="url(#paint5_linear_110_42)" stroke-width="24"/>
</g>
<mask id="mask2_110_42" style="mask-type:alpha" maskUnits="userSpaceOnUse" x="383" y="3" width="397" height="457">
<path d="M589.433 25.9736C600.142 -4.00441 642.707 -4.00404 653.416 25.9736L653.665 26.6933L695.14 150.539L771.472 151.226L769.04 158.49L626.889 159.77C594.265 160.065 580.743 201.681 606.964 221.095L721.213 305.684L684.463 422.353L621.424 377.415L515.075 453.229C488.508 472.168 453.107 446.447 462.909 415.329L502.148 290.755L397.181 213.039C370.96 193.625 384.482 152.009 417.106 151.715L547.708 150.539L589.184 26.6933L589.433 25.9736ZM500.775 433.937C500.651 434.018 500.527 434.096 500.403 434.171C500.527 434.096 500.651 434.019 500.775 433.938L501.143 433.687L500.775 433.937ZM488.066 415.343L486.706 419.665L528.039 288.447L488.066 415.343ZM616.625 351.448C616.511 351.511 616.397 351.576 616.285 351.644L616.626 351.448C616.741 351.385 616.857 351.325 616.973 351.267L616.625 351.448ZM619.152 350.482C618.654 350.598 618.163 350.754 617.683 350.947L618.045 350.81C618.53 350.635 619.026 350.5 619.527 350.403L619.152 350.482ZM623.697 350.483C623.946 350.541 624.193 350.609 624.438 350.687L624.069 350.577C623.945 350.543 623.821 350.512 623.697 350.483ZM621.424 350.222C621.678 350.222 621.933 350.232 622.186 350.251L621.805 350.228C621.678 350.224 621.551 350.222 621.424 350.222ZM621.246 201.806L741.042 290.501L621.246 201.807C621.178 201.756 621.112 201.704 621.045 201.652C621.111 201.704 621.178 201.755 621.246 201.806ZM620.253 200.977C620.158 200.886 620.065 200.795 619.974 200.702C620.065 200.795 620.158 200.886 620.253 200.977ZM619.908 200.633C619.835 200.558 619.764 200.482 619.694 200.405C619.763 200.482 619.835 200.558 619.908 200.633ZM619.126 199.723C619.285 199.932 619.453 200.137 619.631 200.337C619.545 200.24 619.461 200.143 619.379 200.044L619.126 199.723ZM618.668 199.062L618.889 199.395C618.791 199.253 618.698 199.108 618.608 198.963C618.628 198.996 618.648 199.029 618.668 199.062ZM618.488 198.763C618.466 198.726 618.445 198.689 618.424 198.652C618.445 198.689 618.466 198.726 618.488 198.763ZM618.317 198.458C618.294 198.415 618.271 198.372 618.249 198.328C618.271 198.372 618.294 198.415 618.317 198.458ZM626.223 183.812C625.956 183.836 625.695 183.871 625.438 183.914C625.556 183.894 625.674 183.875 625.794 183.859L626.223 183.812ZM779.634 182.389L779.236 182.399C779.47 182.397 779.702 182.385 779.933 182.367C779.834 182.375 779.734 182.384 779.634 182.389ZM614.85 29.8955C614.753 29.9799 614.657 30.0673 614.563 30.1562C614.752 29.9786 614.946 29.8093 615.146 29.6494L614.85 29.8955ZM626.442 28.7969C626.551 28.8589 626.66 28.9228 626.767 28.9892L626.442 28.7959C626.332 28.7337 626.222 28.6739 626.11 28.6162L626.442 28.7969Z" fill="url(#paint6_linear_110_42)"/>
</mask>
<g mask="url(#mask2_110_42)">
<path d="M600.724 30.0371C607.653 10.6399 635.195 10.6401 642.124 30.0371L642.285 30.5029L686.478 162.46L825.634 163.714C846.744 163.904 855.493 190.832 838.526 203.394L726.684 286.2L768.493 418.934L768.637 419.404C774.479 439.327 751.795 455.616 734.739 443.457L621.424 362.677L508.108 443.457C490.918 455.711 468.012 439.068 474.354 418.933L516.163 286.2L404.321 203.394C387.355 190.832 396.104 163.904 417.214 163.714L556.369 162.46L600.562 30.5029L600.724 30.0371Z" fill="url(#paint7_linear_110_42)" stroke="url(#paint8_linear_110_42)" stroke-width="24"/>
</g>
<path d="M825.724 27.0371C832.653 7.64003 860.195 7.63998 867.124 27.0371L867.285 27.5029L915.146 170.412L1065.85 171.77C1086.96 171.96 1095.71 198.887 1078.74 211.449L957.618 301.129L1002.9 444.877C1009.24 465.012 986.335 481.655 969.145 469.401L846.423 381.917L723.703 469.401C706.513 481.655 683.607 465.012 689.949 444.877L735.229 301.129L614.104 211.449C597.138 198.887 605.887 171.96 626.997 171.77L777.701 170.412L825.562 27.5029L825.724 27.0371Z" fill="url(#paint9_linear_110_42)" stroke="url(#paint10_linear_110_42)" stroke-width="24"/>
<defs>
<linearGradient id="paint0_linear_110_42" x1="217.054" y1="25" x2="217.054" y2="453" gradientUnits="userSpaceOnUse">
<stop stop-color="#FFC83D"/>
</linearGradient>
<linearGradient id="paint1_linear_110_42" x1="208.424" y1="25" x2="208.424" y2="453" gradientUnits="userSpaceOnUse">
<stop stop-color="#FFC83D"/>
<stop offset="1" stop-color="#FFC83D" stop-opacity="0"/>
</linearGradient>
<linearGradient id="paint2_linear_110_42" x1="208.424" y1="25" x2="208.424" y2="453" gradientUnits="userSpaceOnUse">
<stop/>
<stop offset="1" stop-opacity="0"/>
</linearGradient>
<linearGradient id="paint3_linear_110_42" x1="419.904" y1="15" x2="419.904" y2="475" gradientUnits="userSpaceOnUse">
<stop stop-color="#FFC83D"/>
</linearGradient>
<linearGradient id="paint4_linear_110_42" x1="408.424" y1="15" x2="408.424" y2="475" gradientUnits="userSpaceOnUse">
<stop stop-color="#FFC83D"/>
<stop offset="1" stop-color="#FFC83D" stop-opacity="0"/>
</linearGradient>
<linearGradient id="paint5_linear_110_42" x1="408.424" y1="15" x2="408.424" y2="475" gradientUnits="userSpaceOnUse">
<stop/>
<stop offset="1" stop-opacity="0"/>
</linearGradient>
<linearGradient id="paint6_linear_110_42" x1="621.424" y1="6" x2="621.424" y2="498" gradientUnits="userSpaceOnUse">
<stop offset="1" stop-color="#FFC83D"/>
</linearGradient>
<linearGradient id="paint7_linear_110_42" x1="621.424" y1="6" x2="621.424" y2="498" gradientUnits="userSpaceOnUse">
<stop stop-color="#FFC83D"/>
<stop offset="1" stop-color="#FFC83D" stop-opacity="0"/>
</linearGradient>
<linearGradient id="paint8_linear_110_42" x1="621.424" y1="6" x2="621.424" y2="498" gradientUnits="userSpaceOnUse">
<stop/>
<stop offset="1" stop-opacity="0"/>
</linearGradient>
<linearGradient id="paint9_linear_110_42" x1="846.424" y1="3" x2="846.424" y2="527" gradientUnits="userSpaceOnUse">
<stop stop-color="#FFC83D"/>
<stop offset="1" stop-color="#FFC83D" stop-opacity="0"/>
</linearGradient>
<linearGradient id="paint10_linear_110_42" x1="846.424" y1="3" x2="846.424" y2="527" gradientUnits="userSpaceOnUse">
<stop/>
<stop offset="1" stop-opacity="0"/>
</linearGradient>
</defs>
</svg>
