<svg width="41" height="15" viewBox="0 0 41 15" fill="none" xmlns="http://www.w3.org/2000/svg">
<path d="M32.5996 0.25C32.6494 0.25 32.6982 0.264412 32.7402 0.291016C32.7613 0.304372 32.7805 0.320332 32.7969 0.338867L32.8369 0.400391L32.8398 0.40625L35.0244 4.73242L35.083 4.84961L35.2119 4.86719L40.1104 5.56348C40.3011 5.59024 40.4149 5.83046 40.3125 6.01172L40.2549 6.08496L36.7324 9.44141L36.6357 9.5332L36.6592 9.66504L37.4893 14.3955C37.5302 14.628 37.3408 14.7741 37.1729 14.7451L37.1035 14.7217L32.7148 12.4658L32.6006 12.4072L32.4863 12.4658L28.0957 14.7217C27.9174 14.8128 27.6656 14.6622 27.7109 14.3965L28.54 9.66602L28.5635 9.53418L28.4668 9.44238L24.9434 6.08594H24.9443C24.7782 5.92737 24.847 5.67115 25.0127 5.58887L25.0889 5.56445H25.0898L29.9873 4.86914L30.1162 4.85059L30.1758 4.7334L32.3594 0.40625L32.3623 0.400391C32.3836 0.355521 32.417 0.31761 32.459 0.291016C32.501 0.26444 32.5499 0.250029 32.5996 0.25Z" fill="url(#paint0_linear_112_148)" fill-opacity="0.3" stroke="url(#paint1_linear_112_148)" stroke-width="0.5"/>
<mask id="mask0_112_148" style="mask-type:alpha" maskUnits="userSpaceOnUse" x="17" y="0" width="16" height="15">
<path d="M25.0654 0.75C25.0872 0.75 25.1092 0.752772 25.1299 0.758789L25.1885 0.785156C25.2068 0.796744 25.2231 0.811085 25.2373 0.827148L25.2725 0.880859L25.2754 0.885742L27.3135 4.9248L27.3721 5.04102L27.502 5.05957L32.0723 5.70898H32.0732C32.2383 5.73229 32.3398 5.9427 32.249 6.10254L32.1982 6.16699L28.9111 9.29883L28.8145 9.3916L28.8379 9.52344L29.6123 13.9375C29.6486 14.1439 29.4819 14.2687 29.3369 14.2441L29.2764 14.2246L25.1807 12.1191L25.0664 12.0605L24.9521 12.1191L20.8555 14.2246C20.7029 14.3029 20.4792 14.1748 20.5195 13.9385L21.2939 9.52441L21.3174 9.39258L21.2197 9.2998L17.9326 6.16797C17.7857 6.02776 17.8481 5.8024 17.9922 5.73047L18.0586 5.70996H18.0596L22.6299 5.06055L22.7598 5.04199L22.8184 4.92578L24.8555 0.885742L24.8564 0.886719L24.8594 0.880859C24.8686 0.861333 24.8803 0.843173 24.8945 0.827148L24.9434 0.785156C24.9798 0.762092 25.0223 0.750079 25.0654 0.75Z" fill="url(#paint2_linear_112_148)" fill-opacity="0.3" stroke="url(#paint3_linear_112_148)" stroke-width="0.5"/>
</mask>
<g mask="url(#mask0_112_148)">
<path d="M25.0654 0.5C25.1559 0.5 25.2448 0.525896 25.3213 0.574219C25.3978 0.6226 25.4592 0.691684 25.498 0.773438L27.5361 4.81152L28.0742 4.8877L25.0547 5.31738C24.6137 5.37938 24.4425 5.95358 24.7715 6.26758L28.2939 9.62305L27.5888 13.6387L25.0664 12.3418L20.9687 14.4473C20.6311 14.6199 20.2508 14.3459 20.2646 13.9697L20.2734 13.8955L21.0478 9.48047L17.7597 6.34863C17.453 6.05565 17.6122 5.52003 18.0234 5.46191L22.5947 4.8125L24.6328 0.773438C24.6716 0.691673 24.7331 0.622638 24.8096 0.574219C24.886 0.525856 24.9749 0.500069 25.0654 0.5Z" fill="url(#paint4_linear_112_148)"/>
</g>
<mask id="mask1_112_148" style="mask-type:alpha" maskUnits="userSpaceOnUse" x="11" y="1" width="15" height="13">
<path d="M18.1318 1.25C18.1503 1.25 18.1689 1.25269 18.1865 1.25781L18.2363 1.28027C18.2517 1.29002 18.2654 1.30197 18.2773 1.31543L18.3076 1.36133L18.3105 1.36621L20.2031 5.11621L20.2617 5.2334L20.3916 5.25098L24.6357 5.85449H24.6367C24.7758 5.87428 24.8655 6.05499 24.7871 6.19336L24.7432 6.24902L21.6904 9.15723L21.5938 9.25L21.6172 9.38184L22.3359 13.4805C22.3723 13.6869 22.1774 13.794 22.0498 13.7285H22.0508L18.2471 11.7734L18.1328 11.7148L18.0186 11.7734L14.2139 13.7285C14.0869 13.7933 13.8924 13.6882 13.9277 13.4814L14.6475 9.38281L14.6699 9.25098L14.5732 9.1582L11.5205 6.25C11.3928 6.12794 11.4495 5.93431 11.5723 5.87305L11.6279 5.85547L15.873 5.25195L16.002 5.2334L16.0605 5.11719L17.9531 1.36621L17.9541 1.36719L17.9561 1.36133C17.9639 1.3447 17.9742 1.32907 17.9863 1.31543L18.0283 1.28027C18.0593 1.26067 18.0951 1.25006 18.1318 1.25Z" fill="url(#paint5_linear_112_148)" fill-opacity="0.3" stroke="url(#paint6_linear_112_148)" stroke-width="0.5"/>
</mask>
<g mask="url(#mask1_112_148)">
<path d="M18.1318 1C18.216 1 18.299 1.02339 18.3701 1.06836C18.4412 1.11333 18.4981 1.17791 18.5342 1.25391L20.4267 5.00391L20.8359 5.06152L18.0234 5.46191C17.6122 5.52005 17.453 6.05565 17.7598 6.34863L21.0478 9.48047L20.4014 13.1611L18.1328 11.9951L14.3281 13.9502C14.0145 14.1111 13.6611 13.8572 13.6738 13.5078L13.6816 13.4385L14.4014 9.33984L11.3476 6.43066C11.0631 6.15856 11.211 5.66138 11.5928 5.60742L15.8379 5.00488L17.7305 1.25391C17.7665 1.17794 17.8235 1.11331 17.8945 1.06836C17.9655 1.02354 18.0479 1.00005 18.1318 1ZM22.5801 13.6191C22.5285 13.8861 22.2602 14.0657 21.999 13.9775L21.9365 13.9502L22.5801 13.6191Z" fill="url(#paint7_linear_112_148)"/>
</g>
<mask id="mask2_112_148" style="mask-type:alpha" maskUnits="userSpaceOnUse" x="5" y="1" width="14" height="13">
<path d="M11.6982 1.75C11.7134 1.75 11.7288 1.75169 11.7432 1.75586L11.7842 1.77441C11.7969 1.78246 11.8085 1.79257 11.8184 1.80371L11.8438 1.8418L11.8457 1.84668L13.5928 5.30859L13.6523 5.4248L13.7812 5.44336L17.6992 6C17.7655 6.00929 17.8174 6.05575 17.8389 6.12793C17.8551 6.1825 17.8497 6.2394 17.8223 6.28711L17.7881 6.33105H17.7871L14.9697 9.0166L14.873 9.1084L14.8965 9.24023L15.5605 13.0244C15.5749 13.1064 15.5423 13.1741 15.4922 13.2139C15.4552 13.2432 15.4121 13.2554 15.3682 13.2471L15.3242 13.2324L11.8135 11.4277L11.6992 11.3691L11.585 11.4277L8.07324 13.2324C8.01462 13.2625 7.95451 13.2529 7.90527 13.2139C7.85531 13.1742 7.82281 13.1068 7.83691 13.0244L8.50098 9.24121L8.52344 9.10938L8.42676 9.0166L5.6084 6.33203C5.55276 6.27863 5.5359 6.20181 5.55762 6.12891C5.57383 6.0746 5.60721 6.035 5.65039 6.01465L5.69727 6.00098L9.61621 5.44434L9.74512 5.42578L9.80371 5.30957L11.5508 1.84668L11.5537 1.8418C11.5602 1.82807 11.5681 1.81497 11.5781 1.80371L11.6123 1.77441C11.6379 1.75823 11.668 1.75004 11.6982 1.75Z" fill="url(#paint8_linear_112_148)" fill-opacity="0.3" stroke="url(#paint9_linear_112_148)" stroke-width="0.5"/>
</mask>
<g mask="url(#mask2_112_148)">
<path d="M11.6978 1.5C11.7754 1.5 11.8519 1.52201 11.9175 1.56348C11.9831 1.60495 12.0356 1.66428 12.0689 1.73438L13.816 5.19629L14.1519 5.24316L11.5933 5.60742C11.2111 5.66115 11.0631 6.15855 11.3482 6.43066L14.4009 9.33984L13.8043 12.7314L11.6988 11.6494L8.18706 13.4541C7.8784 13.6124 7.52831 13.3355 7.59038 12.9805V12.9814L8.25445 9.19824L5.43609 6.51367C5.17291 6.26249 5.30988 5.80253 5.66265 5.75293L9.58062 5.19629L11.3277 1.73438C11.361 1.66429 11.4135 1.60495 11.4791 1.56348C11.5445 1.5221 11.6204 1.50009 11.6978 1.5Z" fill="url(#paint10_linear_112_148)"/>
</g>
<mask id="mask3_112_148" style="mask-type:alpha" maskUnits="userSpaceOnUse" x="0" y="2" width="12" height="11">
<path d="M5.86621 2.25C5.87812 2.25 5.89004 2.25161 5.90137 2.25488L5.93359 2.26953C5.94381 2.27599 5.95303 2.28398 5.96094 2.29297L5.98047 2.32227L5.9834 2.32715L7.58496 5.50098L7.64355 5.61719L7.77246 5.63574L11.3643 6.14551C11.4158 6.15274 11.4579 6.18856 11.4756 6.24805C11.4889 6.29304 11.4841 6.33943 11.4619 6.37793L11.4336 6.41406L8.85059 8.875L8.75391 8.9668L8.77734 9.09863L9.38574 12.5674C9.39761 12.6348 9.37137 12.6897 9.33105 12.7217C9.29162 12.753 9.24503 12.7588 9.19922 12.7354H9.19824L5.98145 11.082L5.86719 11.0225L5.75195 11.082L2.5332 12.7354C2.48755 12.7587 2.44165 12.7527 2.40234 12.7217C2.36238 12.6899 2.33546 12.6356 2.34668 12.5684L2.95508 9.09961L2.97852 8.96777L2.88184 8.875L0.297852 6.41406C0.253365 6.37114 0.239909 6.30912 0.257812 6.24902C0.271271 6.20417 0.297926 6.17303 0.332031 6.15723L0.368164 6.14648L3.95996 5.63574L4.08984 5.61816L4.14844 5.50098L5.75 2.32715L5.75195 2.32227C5.76218 2.30071 5.77867 2.28229 5.79883 2.26953C5.81897 2.25679 5.84238 2.25002 5.86621 2.25Z" fill="url(#paint11_linear_112_148)" fill-opacity="0.3" stroke="url(#paint12_linear_112_148)" stroke-width="0.5"/>
</mask>
<g mask="url(#mask3_112_148)">
<path d="M5.86596 2C5.93713 2 6.00698 2.02055 6.06713 2.05859C6.12722 2.0966 6.17529 2.15063 6.2058 2.21484L7.80737 5.3877L8.02026 5.41797L5.66284 5.75293C5.31006 5.80253 5.17309 6.26249 5.43627 6.51367L8.25463 9.19824L7.71752 12.2549L5.86694 11.3037L2.64721 12.958C2.36425 13.1029 2.04324 12.8489 2.10034 12.5234V12.5244L2.70873 9.05664L0.125726 6.5957C-0.115522 6.36545 0.0103583 5.94488 0.333734 5.89941L3.92455 5.38867L5.52612 2.21484C5.55654 2.1507 5.60485 2.09663 5.66479 2.05859C5.72485 2.02061 5.7949 2.00007 5.86596 2Z" fill="url(#paint13_linear_112_148)"/>
</g>
<defs>
<linearGradient id="paint0_linear_112_148" x1="32.5998" y1="0" x2="32.5998" y2="15.0011" gradientUnits="userSpaceOnUse">
<stop stop-color="#CFAAF8"/>
<stop offset="1" stop-color="#CFAAF8" stop-opacity="0"/>
</linearGradient>
<linearGradient id="paint1_linear_112_148" x1="32.5998" y1="0" x2="32.5998" y2="15.0011" gradientUnits="userSpaceOnUse">
<stop offset="0.15" stop-color="#CFAAF8"/>
<stop offset="1" stop-color="#CFAAF8" stop-opacity="0"/>
</linearGradient>
<linearGradient id="paint2_linear_112_148" x1="25.0658" y1="0.5" x2="25.0658" y2="14.5" gradientUnits="userSpaceOnUse">
<stop stop-color="#CFAAF8"/>
<stop offset="1" stop-color="#CFAAF8" stop-opacity="0"/>
</linearGradient>
<linearGradient id="paint3_linear_112_148" x1="25.0658" y1="0.5" x2="25.0658" y2="14.5" gradientUnits="userSpaceOnUse">
<stop offset="0.15" stop-color="#CFAAF8"/>
<stop offset="1" stop-color="#CFAAF8" stop-opacity="0"/>
</linearGradient>
<linearGradient id="paint4_linear_112_148" x1="25.0659" y1="0.5" x2="25.0659" y2="14.4997" gradientUnits="userSpaceOnUse">
<stop stop-color="#CFAAF8"/>
</linearGradient>
<linearGradient id="paint5_linear_112_148" x1="18.1322" y1="1" x2="18.1322" y2="14" gradientUnits="userSpaceOnUse">
<stop stop-color="#CFAAF8"/>
<stop offset="1" stop-color="#CFAAF8" stop-opacity="0"/>
</linearGradient>
<linearGradient id="paint6_linear_112_148" x1="18.1322" y1="1" x2="18.1322" y2="14" gradientUnits="userSpaceOnUse">
<stop offset="0.15" stop-color="#CFAAF8"/>
<stop offset="1" stop-color="#CFAAF8" stop-opacity="0"/>
</linearGradient>
<linearGradient id="paint7_linear_112_148" x1="18.1322" y1="1" x2="18.1322" y2="14" gradientUnits="userSpaceOnUse">
<stop stop-color="#CFAAF8"/>
</linearGradient>
<linearGradient id="paint8_linear_112_148" x1="11.6985" y1="1.5" x2="11.6985" y2="13.5" gradientUnits="userSpaceOnUse">
<stop stop-color="#CFAAF8"/>
<stop offset="1" stop-color="#CFAAF8" stop-opacity="0"/>
</linearGradient>
<linearGradient id="paint9_linear_112_148" x1="11.6985" y1="1.5" x2="11.6985" y2="13.5" gradientUnits="userSpaceOnUse">
<stop offset="0.15" stop-color="#CFAAF8"/>
<stop offset="1" stop-color="#CFAAF8" stop-opacity="0"/>
</linearGradient>
<linearGradient id="paint10_linear_112_148" x1="11.6985" y1="1.5" x2="11.6985" y2="13.5" gradientUnits="userSpaceOnUse">
<stop stop-color="#CFAAF8"/>
</linearGradient>
<linearGradient id="paint11_linear_112_148" x1="5.86633" y1="2" x2="5.86633" y2="13" gradientUnits="userSpaceOnUse">
<stop stop-color="#CFAAF8"/>
<stop offset="1" stop-color="#CFAAF8" stop-opacity="0"/>
</linearGradient>
<linearGradient id="paint12_linear_112_148" x1="5.86633" y1="2" x2="5.86633" y2="13" gradientUnits="userSpaceOnUse">
<stop offset="0.15" stop-color="#CFAAF8"/>
<stop offset="1" stop-color="#CFAAF8" stop-opacity="0"/>
</linearGradient>
<linearGradient id="paint13_linear_112_148" x1="5.86691" y1="2" x2="5.86691" y2="12.9999" gradientUnits="userSpaceOnUse">
<stop stop-color="#CFAAF8"/>
</linearGradient>
</defs>
</svg>
