<svg width="924" height="527" viewBox="0 0 924 527" fill="none" xmlns="http://www.w3.org/2000/svg">
<mask id="mask0_110_65" style="mask-type:alpha" maskUnits="userSpaceOnUse" x="0" y="12" width="383" height="428">
<path d="M191.65 34.9736C202.358 4.99574 244.923 4.99584 255.632 34.9736L255.881 35.6933L293.689 148.587L363.367 149.214L362.924 150.539L232.322 151.715C199.699 152.009 186.177 193.625 212.398 213.039L317.364 290.755L281.292 405.273L223.641 364.175L126.695 433.285C100.129 452.223 64.7279 426.503 74.5294 395.385L110.299 281.827L14.6144 210.983C-11.6064 191.569 1.91604 149.953 34.5401 149.659L153.592 148.587L191.4 35.6933L191.65 34.9736ZM341.16 295.095L301.841 419.922H301.84L303.282 415.343L341.16 295.095ZM99.6866 395.398L97.421 402.595L136.19 279.519L99.6866 395.398ZM219.265 337.99C219.227 338.009 219.188 338.027 219.15 338.046C219.188 338.027 219.227 338.009 219.265 337.99ZM219.542 337.859C219.515 337.872 219.487 337.885 219.46 337.897C219.504 337.877 219.547 337.857 219.591 337.838L219.542 337.859ZM340.287 277.903L340.578 278.168C340.483 278.078 340.386 277.99 340.287 277.904L339.983 277.649C340.086 277.732 340.188 277.817 340.287 277.903ZM230.089 176.019C230.204 175.991 230.32 175.964 230.438 175.939C230.32 175.964 230.204 175.991 230.089 176.019ZM230.516 175.923C230.619 175.902 230.724 175.882 230.829 175.864C230.724 175.882 230.619 175.902 230.516 175.923ZM230.868 175.857C230.987 175.837 231.107 175.819 231.228 175.804L231.248 175.801C231.12 175.817 230.994 175.836 230.868 175.857ZM382.046 168.77C382.03 168.803 382.014 168.835 381.998 168.867C382.014 168.835 382.03 168.803 382.046 168.77ZM173.18 165.673L173.059 166.012C173.101 165.9 173.143 165.787 173.181 165.673L214.158 43.3144L173.18 165.673ZM216.501 39.4286C216.41 39.5221 216.32 39.6178 216.232 39.7157L216.501 39.4296C216.592 39.3363 216.685 39.245 216.779 39.1562L216.501 39.4286ZM230.781 39.4296C230.873 39.5229 230.963 39.618 231.051 39.7157L230.781 39.4286C230.69 39.3355 230.597 39.2449 230.503 39.1562L230.781 39.4296ZM218.298 37.9892C218.19 38.0559 218.084 38.125 217.979 38.1962L218.298 37.9902C218.406 37.9234 218.514 37.8591 218.624 37.7968L218.298 37.9892ZM228.984 37.9902C229.092 38.0567 229.198 38.1253 229.303 38.1962L228.984 37.9892C228.877 37.9226 228.768 37.859 228.658 37.7968L228.984 37.9902Z" fill="url(#paint0_linear_110_65)"/>
</mask>
<g mask="url(#mask0_110_65)">
<path d="M202.94 39.0371C209.87 19.64 237.412 19.64 244.341 39.0371L244.502 39.5029L285.026 160.509L412.634 161.658C433.744 161.848 442.493 188.776 425.526 201.338L322.966 277.272L361.306 398.989L361.449 399.46C367.291 419.382 344.608 435.671 327.552 423.513L223.641 349.437L119.729 423.513C102.54 435.767 79.6334 419.125 85.9756 398.989L124.314 277.272L21.7549 201.338C4.78835 188.776 13.5377 161.848 34.6475 161.658L162.254 160.509L202.779 39.5029L202.94 39.0371Z" fill="url(#paint1_linear_110_65)" stroke="url(#paint2_linear_110_65)" stroke-width="24"/>
</g>
<mask id="mask1_110_65" style="mask-type:alpha" maskUnits="userSpaceOnUse" x="198" y="3" width="398" height="457">
<path d="M404.65 25.9736C415.359 -4.00439 457.924 -4.00405 468.632 25.9736L468.881 26.6933L510.357 150.539L586.689 151.226L584.256 158.49L488 159.356L446.124 34.3144C446.076 34.1723 446.025 34.0322 445.973 33.8945L446.123 34.3144L488 159.356L442.106 159.77C409.482 160.065 395.96 201.681 422.181 221.095L536.43 305.684L499.68 422.353L436.641 377.415L330.292 453.229C303.725 472.168 268.324 446.447 278.125 415.329L317.365 290.755L212.398 213.039C186.177 193.625 199.699 152.009 232.323 151.715L362.924 150.539L404.401 26.6933L404.65 25.9736ZM430.835 352.079L316.359 433.686C316.131 433.849 315.901 433.998 315.669 434.139C315.777 434.074 315.885 434.008 315.992 433.938L316.36 433.686L430.836 352.079C430.945 352.002 431.054 351.927 431.165 351.854L430.835 352.079ZM431.842 351.447C431.727 351.51 431.613 351.576 431.5 351.644L431.842 351.448C431.957 351.385 432.073 351.325 432.19 351.267L431.842 351.447ZM441.439 351.448C441.554 351.511 441.668 351.576 441.781 351.644L441.439 351.447C441.324 351.384 441.208 351.325 441.091 351.267L441.439 351.448ZM439.714 350.706L439.655 350.686C439.601 350.668 439.546 350.652 439.492 350.636C439.566 350.658 439.64 350.682 439.714 350.706ZM433.875 350.611C433.816 350.629 433.756 350.647 433.697 350.665C433.756 350.647 433.816 350.628 433.875 350.611ZM439.459 350.627C439.38 350.604 439.3 350.582 439.22 350.561C439.3 350.582 439.38 350.604 439.459 350.627ZM434.163 350.533C434.091 350.552 434.019 350.571 433.947 350.591C434.019 350.571 434.091 350.552 434.163 350.533ZM439.174 350.548C439.109 350.531 439.043 350.515 438.977 350.499C439.043 350.515 439.109 350.531 439.174 350.548ZM434.368 350.482C434.317 350.494 434.267 350.507 434.216 350.519C434.288 350.501 434.361 350.484 434.433 350.468L434.368 350.482ZM436.641 350.222C436.895 350.222 437.149 350.232 437.403 350.251L437.022 350.228C436.895 350.224 436.768 350.222 436.641 350.222ZM435.93 201.384C436.101 201.527 436.277 201.669 436.461 201.806L460.631 219.701L436.462 201.807C436.278 201.67 436.101 201.528 435.93 201.384ZM441.439 183.812C441.159 183.838 440.885 183.874 440.616 183.92C440.746 183.898 440.877 183.877 441.01 183.859L441.439 183.812ZM594.851 182.389L594.453 182.399C594.681 182.397 594.908 182.385 595.133 182.368C595.039 182.375 594.946 182.384 594.851 182.389ZM229.6 176.153C229.502 176.183 229.406 176.216 229.31 176.248C229.419 176.211 229.53 176.175 229.641 176.142L229.6 176.153ZM428.042 32.3486C427.973 32.4684 427.906 32.5906 427.84 32.7148C427.972 32.466 428.111 32.2261 428.258 31.9951L428.042 32.3486ZM443.214 29.8964C443.312 29.9809 443.408 30.0673 443.502 30.1562L443.215 29.8955C443.118 29.811 443.019 29.7294 442.918 29.6494L443.214 29.8964ZM434.785 27.6562C434.662 27.6784 434.54 27.7038 434.418 27.7304L434.785 27.6572C434.907 27.635 435.03 27.6144 435.153 27.5966L434.785 27.6562ZM438.497 27.6572C438.619 27.6794 438.741 27.7038 438.863 27.7304L438.497 27.6562C438.374 27.634 438.251 27.6144 438.128 27.5966L438.497 27.6572Z" fill="url(#paint3_linear_110_65)"/>
</mask>
<g mask="url(#mask1_110_65)">
<path d="M415.94 30.0371C422.87 10.6399 450.412 10.6401 457.341 30.0371L457.502 30.5029L501.694 162.46L640.851 163.714C661.961 163.904 670.71 190.832 653.743 203.394L541.9 286.2L583.71 418.934L583.854 419.404C589.695 439.327 567.012 455.616 549.956 443.457L436.641 362.677L323.325 443.457C306.135 455.711 283.229 439.068 289.571 418.933L331.38 286.2L219.538 203.394C202.571 190.832 211.321 163.904 232.431 163.714L371.586 162.46L415.779 30.5029L415.94 30.0371Z" fill="url(#paint4_linear_110_65)" stroke="url(#paint5_linear_110_65)" stroke-width="24"/>
</g>
<path d="M640.94 27.0371C647.87 7.64003 675.412 7.63998 682.341 27.0371L682.502 27.5029L730.362 170.412L881.067 171.77C902.177 171.96 910.927 198.887 893.96 211.449L772.835 301.129L818.115 444.877C824.458 465.012 801.551 481.655 784.361 469.401L661.64 381.917L538.92 469.401C521.73 481.655 498.824 465.012 505.166 444.877L550.445 301.129L429.321 211.449C412.355 198.887 421.104 171.96 442.214 171.77L592.918 170.412L640.779 27.5029L640.94 27.0371Z" fill="url(#paint6_linear_110_65)" stroke="url(#paint7_linear_110_65)" stroke-width="24"/>
<defs>
<linearGradient id="paint0_linear_110_65" x1="235.121" y1="15" x2="235.121" y2="475" gradientUnits="userSpaceOnUse">
<stop stop-color="#FFC83D"/>
</linearGradient>
<linearGradient id="paint1_linear_110_65" x1="223.641" y1="15" x2="223.641" y2="475" gradientUnits="userSpaceOnUse">
<stop stop-color="#FFC83D"/>
<stop offset="1" stop-color="#FFC83D" stop-opacity="0"/>
</linearGradient>
<linearGradient id="paint2_linear_110_65" x1="223.641" y1="15" x2="223.641" y2="475" gradientUnits="userSpaceOnUse">
<stop/>
<stop offset="1" stop-opacity="0"/>
</linearGradient>
<linearGradient id="paint3_linear_110_65" x1="436.631" y1="6" x2="436.631" y2="498" gradientUnits="userSpaceOnUse">
<stop offset="1" stop-color="#FFC83D"/>
</linearGradient>
<linearGradient id="paint4_linear_110_65" x1="436.641" y1="6" x2="436.641" y2="498" gradientUnits="userSpaceOnUse">
<stop stop-color="#FFC83D"/>
<stop offset="1" stop-color="#FFC83D" stop-opacity="0"/>
</linearGradient>
<linearGradient id="paint5_linear_110_65" x1="436.641" y1="6" x2="436.641" y2="498" gradientUnits="userSpaceOnUse">
<stop/>
<stop offset="1" stop-opacity="0"/>
</linearGradient>
<linearGradient id="paint6_linear_110_65" x1="661.641" y1="3" x2="661.641" y2="527" gradientUnits="userSpaceOnUse">
<stop stop-color="#FFC83D"/>
<stop offset="1" stop-color="#FFC83D" stop-opacity="0"/>
</linearGradient>
<linearGradient id="paint7_linear_110_65" x1="661.641" y1="3" x2="661.641" y2="527" gradientUnits="userSpaceOnUse">
<stop/>
<stop offset="1" stop-opacity="0"/>
</linearGradient>
</defs>
</svg>
