<svg width="36" height="15" viewBox="0 0 36 15" fill="none" xmlns="http://www.w3.org/2000/svg">
<path d="M27.5996 0.25C27.6494 0.25 27.6982 0.264412 27.7402 0.291016C27.7613 0.304372 27.7805 0.320332 27.7969 0.338867L27.8369 0.400391L27.8398 0.40625L30.0244 4.73242L30.083 4.84961L30.2119 4.86719L35.1104 5.56348C35.3011 5.59024 35.4149 5.83046 35.3125 6.01172L35.2549 6.08496L31.7324 9.44141L31.6357 9.5332L31.6592 9.66504L32.4893 14.3955C32.5302 14.628 32.3408 14.7741 32.1729 14.7451L32.1035 14.7217L27.7148 12.4658L27.6006 12.4072L27.4863 12.4658L23.0957 14.7217C22.9174 14.8128 22.6656 14.6622 22.7109 14.3965L23.54 9.66602L23.5635 9.53418L23.4668 9.44238L19.9434 6.08594H19.9443C19.7782 5.92737 19.847 5.67115 20.0127 5.58887L20.0889 5.56445H20.0898L24.9873 4.86914L25.1162 4.85059L25.1758 4.7334L27.3594 0.40625L27.3623 0.400391C27.3836 0.355521 27.417 0.31761 27.459 0.291016C27.501 0.26444 27.5499 0.250029 27.5996 0.25Z" fill="url(#paint0_linear_112_171)" fill-opacity="0.3" stroke="url(#paint1_linear_112_171)" stroke-width="0.5"/>
<mask id="mask0_112_171" style="mask-type:alpha" maskUnits="userSpaceOnUse" x="12" y="0" width="16" height="15">
<path d="M20.0654 0.75C20.0872 0.75 20.1092 0.752772 20.1299 0.758789L20.1885 0.785156C20.2068 0.796744 20.2231 0.811085 20.2373 0.827148L20.2725 0.880859L20.2754 0.885742L22.3135 4.9248L22.3721 5.04102L22.502 5.05957L27.0723 5.70898H27.0732C27.2383 5.73229 27.3398 5.9427 27.249 6.10254L27.1982 6.16699L23.9111 9.29883L23.8145 9.3916L23.8379 9.52344L24.6123 13.9375C24.6486 14.1439 24.4819 14.2687 24.3369 14.2441L24.2764 14.2246L20.1807 12.1191L20.0664 12.0605L19.9521 12.1191L15.8555 14.2246C15.7029 14.3029 15.4792 14.1748 15.5195 13.9385L16.2939 9.52441L16.3174 9.39258L16.2197 9.2998L12.9326 6.16797C12.7857 6.02776 12.8481 5.8024 12.9922 5.73047L13.0586 5.70996H13.0596L17.6299 5.06055L17.7598 5.04199L17.8184 4.92578L19.8555 0.885742L19.8564 0.886719L19.8594 0.880859C19.8686 0.861333 19.8803 0.843173 19.8945 0.827148L19.9434 0.785156C19.9798 0.762092 20.0223 0.750079 20.0654 0.75Z" fill="url(#paint2_linear_112_171)" fill-opacity="0.3" stroke="url(#paint3_linear_112_171)" stroke-width="0.5"/>
</mask>
<g mask="url(#mask0_112_171)">
<path d="M20.0654 0.5C20.1559 0.5 20.2448 0.525896 20.3213 0.574219C20.3978 0.6226 20.4592 0.691684 20.498 0.773438L22.5361 4.81152L23.0742 4.8877L20.0547 5.31738C19.6137 5.37938 19.4425 5.95358 19.7715 6.26758L23.2939 9.62305L22.5888 13.6387L20.0664 12.3418L15.9687 14.4473C15.6311 14.6199 15.2508 14.3459 15.2646 13.9697L15.2734 13.8955L16.0478 9.48047L12.7597 6.34863C12.453 6.05565 12.6122 5.52003 13.0234 5.46191L17.5947 4.8125L19.6328 0.773438C19.6716 0.691673 19.7331 0.622638 19.8096 0.574219C19.886 0.525856 19.9749 0.500069 20.0654 0.5Z" fill="url(#paint4_linear_112_171)"/>
</g>
<mask id="mask1_112_171" style="mask-type:alpha" maskUnits="userSpaceOnUse" x="6" y="1" width="15" height="13">
<path d="M13.1318 1.25C13.1503 1.25 13.1689 1.25269 13.1865 1.25781L13.2363 1.28027C13.2517 1.29002 13.2654 1.30197 13.2773 1.31543L13.3076 1.36133L13.3105 1.36621L15.2031 5.11621L15.2617 5.2334L15.3916 5.25098L19.6357 5.85449H19.6367C19.7758 5.87428 19.8655 6.05499 19.7871 6.19336L19.7432 6.24902L16.6904 9.15723L16.5938 9.25L16.6172 9.38184L17.3359 13.4805C17.3723 13.6869 17.1774 13.794 17.0498 13.7285H17.0508L13.2471 11.7734L13.1328 11.7148L13.0186 11.7734L9.21387 13.7285C9.08693 13.7933 8.89242 13.6882 8.92773 13.4814L9.64746 9.38281L9.66992 9.25098L9.57324 9.1582L6.52051 6.25C6.39284 6.12794 6.4495 5.93431 6.57227 5.87305L6.62793 5.85547L10.873 5.25195L11.002 5.2334L11.0605 5.11719L12.9531 1.36621L12.9541 1.36719L12.9561 1.36133C12.9639 1.3447 12.9742 1.32907 12.9863 1.31543L13.0283 1.28027C13.0593 1.26067 13.0951 1.25006 13.1318 1.25Z" fill="url(#paint5_linear_112_171)" fill-opacity="0.3" stroke="url(#paint6_linear_112_171)" stroke-width="0.5"/>
</mask>
<g mask="url(#mask1_112_171)">
<path d="M13.1318 1C13.216 1 13.299 1.02339 13.3701 1.06836C13.4412 1.11333 13.4981 1.17791 13.5342 1.25391L15.4267 5.00391L15.8359 5.06152L13.0234 5.46191C12.6122 5.52005 12.453 6.05565 12.7598 6.34863L16.0478 9.48047L15.4014 13.1611L13.1328 11.9951L9.32811 13.9502C9.01453 14.1111 8.66108 13.8572 8.67382 13.5078L8.68163 13.4385L9.40136 9.33984L6.34765 6.43066C6.06312 6.15856 6.21102 5.66138 6.59276 5.60742L10.8379 5.00488L12.7305 1.25391C12.7665 1.17794 12.8235 1.11331 12.8945 1.06836C12.9655 1.02354 13.0479 1.00005 13.1318 1ZM17.5801 13.6191C17.5285 13.8861 17.2602 14.0657 16.999 13.9775L16.9365 13.9502L17.5801 13.6191Z" fill="url(#paint7_linear_112_171)"/>
</g>
<mask id="mask2_112_171" style="mask-type:alpha" maskUnits="userSpaceOnUse" x="0" y="1" width="14" height="13">
<path d="M6.69824 1.75C6.7134 1.75 6.72875 1.75169 6.74316 1.75586L6.78418 1.77441C6.79691 1.78246 6.80845 1.79257 6.81836 1.80371L6.84375 1.8418L6.8457 1.84668L8.59277 5.30859L8.65234 5.4248L8.78125 5.44336L12.6992 6C12.7655 6.00929 12.8174 6.05575 12.8389 6.12793C12.8551 6.1825 12.8497 6.2394 12.8223 6.28711L12.7881 6.33105H12.7871L9.96973 9.0166L9.87305 9.1084L9.89648 9.24023L10.5605 13.0244C10.5749 13.1064 10.5423 13.1741 10.4922 13.2139C10.4552 13.2432 10.4121 13.2554 10.3682 13.2471L10.3242 13.2324L6.81348 11.4277L6.69922 11.3691L6.58496 11.4277L3.07324 13.2324C3.01462 13.2625 2.95451 13.2529 2.90527 13.2139C2.85531 13.1742 2.82281 13.1068 2.83691 13.0244L3.50098 9.24121L3.52344 9.10938L3.42676 9.0166L0.608398 6.33203C0.552761 6.27863 0.535898 6.20181 0.557617 6.12891C0.573829 6.0746 0.607213 6.035 0.650391 6.01465L0.697266 6.00098L4.61621 5.44434L4.74512 5.42578L4.80371 5.30957L6.55078 1.84668L6.55371 1.8418C6.56022 1.82807 6.56815 1.81497 6.57812 1.80371L6.6123 1.77441C6.63789 1.75823 6.66797 1.75004 6.69824 1.75Z" fill="url(#paint8_linear_112_171)" fill-opacity="0.3" stroke="url(#paint9_linear_112_171)" stroke-width="0.5"/>
</mask>
<g mask="url(#mask2_112_171)">
<path d="M6.6987 1.5C6.77636 1.5 6.8528 1.52197 6.91843 1.56348C6.98396 1.60498 7.03655 1.66429 7.0698 1.73438L8.81687 5.19629L9.1528 5.24316L6.59323 5.60742C6.21135 5.66128 6.06345 6.15854 6.34812 6.43066L9.40085 9.33984L8.80515 12.7314L6.6987 11.6494L3.18698 13.4541C2.8784 13.6122 2.52832 13.3353 2.5903 12.9805V12.9814L3.25437 9.19824L0.436006 6.51367C0.17293 6.26252 0.309939 5.80264 0.662569 5.75293L4.58054 5.19629L6.32761 1.73438C6.36084 1.66431 6.41347 1.60498 6.47897 1.56348C6.5446 1.52197 6.62106 1.50001 6.6987 1.5Z" fill="url(#paint10_linear_112_171)"/>
</g>
<defs>
<linearGradient id="paint0_linear_112_171" x1="27.5998" y1="0" x2="27.5998" y2="15.0011" gradientUnits="userSpaceOnUse">
<stop stop-color="#CFAAF8"/>
<stop offset="1" stop-color="#CFAAF8" stop-opacity="0"/>
</linearGradient>
<linearGradient id="paint1_linear_112_171" x1="27.5998" y1="0" x2="27.5998" y2="15.0011" gradientUnits="userSpaceOnUse">
<stop offset="0.15" stop-color="#CFAAF8"/>
<stop offset="1" stop-color="#CFAAF8" stop-opacity="0"/>
</linearGradient>
<linearGradient id="paint2_linear_112_171" x1="20.0658" y1="0.5" x2="20.0658" y2="14.5" gradientUnits="userSpaceOnUse">
<stop stop-color="#CFAAF8"/>
<stop offset="1" stop-color="#CFAAF8" stop-opacity="0"/>
</linearGradient>
<linearGradient id="paint3_linear_112_171" x1="20.0658" y1="0.5" x2="20.0658" y2="14.5" gradientUnits="userSpaceOnUse">
<stop offset="0.15" stop-color="#CFAAF8"/>
<stop offset="1" stop-color="#CFAAF8" stop-opacity="0"/>
</linearGradient>
<linearGradient id="paint4_linear_112_171" x1="20.0659" y1="0.5" x2="20.0659" y2="14.4997" gradientUnits="userSpaceOnUse">
<stop stop-color="#CFAAF8"/>
</linearGradient>
<linearGradient id="paint5_linear_112_171" x1="13.1322" y1="1" x2="13.1322" y2="14" gradientUnits="userSpaceOnUse">
<stop stop-color="#CFAAF8"/>
<stop offset="1" stop-color="#CFAAF8" stop-opacity="0"/>
</linearGradient>
<linearGradient id="paint6_linear_112_171" x1="13.1322" y1="1" x2="13.1322" y2="14" gradientUnits="userSpaceOnUse">
<stop offset="0.15" stop-color="#CFAAF8"/>
<stop offset="1" stop-color="#CFAAF8" stop-opacity="0"/>
</linearGradient>
<linearGradient id="paint7_linear_112_171" x1="13.1322" y1="1" x2="13.1322" y2="14" gradientUnits="userSpaceOnUse">
<stop stop-color="#CFAAF8"/>
</linearGradient>
<linearGradient id="paint8_linear_112_171" x1="6.69846" y1="1.5" x2="6.69846" y2="13.5" gradientUnits="userSpaceOnUse">
<stop stop-color="#CFAAF8"/>
<stop offset="1" stop-color="#CFAAF8" stop-opacity="0"/>
</linearGradient>
<linearGradient id="paint9_linear_112_171" x1="6.69846" y1="1.5" x2="6.69846" y2="13.5" gradientUnits="userSpaceOnUse">
<stop offset="0.15" stop-color="#CFAAF8"/>
<stop offset="1" stop-color="#CFAAF8" stop-opacity="0"/>
</linearGradient>
<linearGradient id="paint10_linear_112_171" x1="6.69827" y1="1.5" x2="6.69827" y2="13.4999" gradientUnits="userSpaceOnUse">
<stop stop-color="#CFAAF8"/>
</linearGradient>
</defs>
</svg>
