<svg width="24" height="15" viewBox="0 0 24 15" fill="none" xmlns="http://www.w3.org/2000/svg">
<path d="M15.5996 0.25C15.6494 0.25 15.6982 0.264412 15.7402 0.291016C15.7613 0.304372 15.7805 0.320332 15.7969 0.338867L15.8369 0.400391L15.8398 0.40625L18.0244 4.73242L18.083 4.84961L18.2119 4.86719L23.1104 5.56348C23.3011 5.59024 23.4149 5.83046 23.3125 6.01172L23.2549 6.08496L19.7324 9.44141L19.6357 9.5332L19.6592 9.66504L20.4893 14.3955C20.5302 14.628 20.3408 14.7741 20.1729 14.7451L20.1035 14.7217L15.7148 12.4658L15.6006 12.4072L15.4863 12.4658L11.0957 14.7217C10.9174 14.8128 10.6656 14.6622 10.7109 14.3965L11.54 9.66602L11.5635 9.53418L11.4668 9.44238L7.94336 6.08594H7.94434C7.77819 5.92737 7.84697 5.67115 8.0127 5.58887L8.08887 5.56445H8.08984L12.9873 4.86914L13.1162 4.85059L13.1758 4.7334L15.3594 0.40625L15.3623 0.400391C15.3836 0.355521 15.417 0.31761 15.459 0.291016C15.501 0.26444 15.5499 0.250029 15.5996 0.25Z" fill="url(#paint0_linear_112_171)" fill-opacity="0.3" stroke="url(#paint1_linear_112_171)" stroke-width="0.5"/>
<mask id="mask0_112_171" style="mask-type:alpha" maskUnits="userSpaceOnUse" x="0" y="0" width="16" height="15">
<path d="M8.06543 0.75C8.08717 0.75 8.10921 0.752772 8.12988 0.758789L8.18848 0.785156C8.20677 0.796744 8.2231 0.811085 8.2373 0.827148L8.27246 0.880859L8.27539 0.885742L10.3135 4.9248L10.3721 5.04102L10.502 5.05957L15.0723 5.70898H15.0732C15.2383 5.73229 15.3398 5.9427 15.249 6.10254L15.1982 6.16699L11.9111 9.29883L11.8145 9.3916L11.8379 9.52344L12.6123 13.9375C12.6486 14.1439 12.4819 14.2687 12.3369 14.2441L12.2764 14.2246L8.18066 12.1191L8.06641 12.0605L7.95215 12.1191L3.85547 14.2246C3.70289 14.3029 3.47922 14.1748 3.51953 13.9385L4.29395 9.52441L4.31738 9.39258L4.21973 9.2998L0.932617 6.16797C0.785707 6.02776 0.848115 5.8024 0.992188 5.73047L1.05859 5.70996H1.05957L5.62988 5.06055L5.75977 5.04199L5.81836 4.92578L7.85547 0.885742L7.85645 0.886719L7.85938 0.880859C7.86864 0.861333 7.88035 0.843173 7.89453 0.827148L7.94336 0.785156C7.97983 0.762092 8.02228 0.750079 8.06543 0.75Z" fill="url(#paint2_linear_112_171)" fill-opacity="0.3" stroke="url(#paint3_linear_112_171)" stroke-width="0.5"/>
</mask>
<g mask="url(#mask0_112_171)">
<path d="M8.06541 0.5C8.15591 0.5 8.24476 0.525896 8.32127 0.574219C8.39777 0.6226 8.45919 0.691684 8.49803 0.773438L10.5361 4.81152L11.0742 4.8877L8.05467 5.31738C7.61367 5.37938 7.44246 5.95358 7.77146 6.26758L11.2939 9.62305L10.5888 13.6387L8.06639 12.3418L3.96873 14.4473C3.6311 14.6199 3.25076 14.3459 3.26463 13.9697L3.27342 13.8955L4.04783 9.48047L0.759746 6.34863C0.452953 6.05565 0.612172 5.52003 1.02342 5.46191L5.59471 4.8125L7.63279 0.773438C7.67158 0.691673 7.7331 0.622638 7.80955 0.574219C7.88602 0.525856 7.97494 0.500069 8.06541 0.5Z" fill="url(#paint4_linear_112_171)"/>
</g>
<defs>
<linearGradient id="paint0_linear_112_171" x1="15.5998" y1="0" x2="15.5998" y2="15.0011" gradientUnits="userSpaceOnUse">
<stop stop-color="#CFAAF8"/>
<stop offset="1" stop-color="#CFAAF8" stop-opacity="0"/>
</linearGradient>
<linearGradient id="paint1_linear_112_171" x1="15.5998" y1="0" x2="15.5998" y2="15.0011" gradientUnits="userSpaceOnUse">
<stop offset="0.15" stop-color="#CFAAF8"/>
<stop offset="1" stop-color="#CFAAF8" stop-opacity="0"/>
</linearGradient>
<linearGradient id="paint2_linear_112_171" x1="8.06584" y1="0.5" x2="8.06584" y2="14.5" gradientUnits="userSpaceOnUse">
<stop stop-color="#CFAAF8"/>
<stop offset="1" stop-color="#CFAAF8" stop-opacity="0"/>
</linearGradient>
<linearGradient id="paint3_linear_112_171" x1="8.06584" y1="0.5" x2="8.06584" y2="14.5" gradientUnits="userSpaceOnUse">
<stop offset="0.15" stop-color="#CFAAF8"/>
<stop offset="1" stop-color="#CFAAF8" stop-opacity="0"/>
</linearGradient>
<linearGradient id="paint4_linear_112_171" x1="8.06587" y1="0.5" x2="8.06587" y2="14.4997" gradientUnits="userSpaceOnUse">
<stop stop-color="#CFAAF8"/>
</linearGradient>
</defs>
</svg>
