<svg width="60" height="60" viewBox="0 0 60 60" fill="none" xmlns="http://www.w3.org/2000/svg">
<g filter="url(#filter0_f_63_19)">
<circle cx="30" cy="30" r="25" fill="#566081"/>
</g>
<circle cx="30" cy="30" r="25" fill="#6875A0"/>
<g clip-path="url(#clip0_63_19)">
<circle cx="30" cy="30" r="20" stroke="white" stroke-width="4"/>
<circle cx="30" cy="30" r="5.5" fill="white" stroke="white"/>
<path d="M5.24264 6.52421L18.1595 12.0926L10.8111 19.4411L5.24264 6.52421Z" fill="white"/>
<path d="M48.7121 10.591L45.499 16.5597L42.7434 13.804L48.7121 10.591Z" fill="white"/>
<path d="M9.59089 49.7122L12.8039 43.7434L15.5596 46.4991L9.59089 49.7122Z" fill="white"/>
<path d="M52.5662 53.5662L39.6493 47.9978L46.9978 40.6493L52.5662 53.5662Z" fill="white"/>
<path d="M18.3137 18.6863L29.6274 26L40.9411 18.6863L33.6274 30L40.9411 41.3137L29.6274 34L18.3137 41.3137L25.6274 30L18.3137 18.6863Z" fill="white"/>
</g>
<defs>
<filter id="filter0_f_63_19" x="0" y="0" width="60" height="60" filterUnits="userSpaceOnUse" color-interpolation-filters="sRGB">
<feFlood flood-opacity="0" result="BackgroundImageFix"/>
<feBlend mode="normal" in="SourceGraphic" in2="BackgroundImageFix" result="shape"/>
<feGaussianBlur stdDeviation="2.5" result="effect1_foregroundBlur_63_19"/>
</filter>
<clipPath id="clip0_63_19">
<rect width="54" height="54" fill="white" transform="translate(3 3)"/>
</clipPath>
</defs>
</svg>
