<svg width="8" height="8" viewBox="0 0 8 8" fill="none" xmlns="http://www.w3.org/2000/svg">
<path d="M0.646001 0.646C0.692447 0.599437 0.747622 0.562494 0.808367 0.537287C0.869112 0.512081 0.934234 0.499106 1 0.499106C1.06577 0.499106 1.13089 0.512081 1.19163 0.537287C1.25238 0.562494 1.30756 0.599437 1.354 0.646L4 3.293L6.646 0.646C6.69249 0.599512 6.74768 0.562636 6.80842 0.537477C6.86916 0.512317 6.93426 0.499368 7 0.499368C7.06574 0.499368 7.13085 0.512317 7.19158 0.537477C7.25232 0.562636 7.30751 0.599512 7.354 0.646C7.40049 0.692488 7.43737 0.747677 7.46252 0.808416C7.48768 0.869156 7.50063 0.934256 7.50063 1C7.50063 1.06574 7.48768 1.13084 7.46252 1.19158C7.43737 1.25232 7.40049 1.30751 7.354 1.354L4.707 4L7.354 6.646C7.40049 6.69249 7.43737 6.74768 7.46252 6.80842C7.48768 6.86916 7.50063 6.93426 7.50063 7C7.50063 7.06574 7.48768 7.13084 7.46252 7.19158C7.43737 7.25232 7.40049 7.30751 7.354 7.354C7.30751 7.40049 7.25232 7.43736 7.19158 7.46252C7.13085 7.48768 7.06574 7.50063 7 7.50063C6.93426 7.50063 6.86916 7.48768 6.80842 7.46252C6.74768 7.43736 6.69249 7.40049 6.646 7.354L4 4.707L1.354 7.354C1.30751 7.40049 1.25232 7.43736 1.19158 7.46252C1.13085 7.48768 1.06574 7.50063 1 7.50063C0.934257 7.50063 0.869157 7.48768 0.808417 7.46252C0.747678 7.43736 0.692489 7.40049 0.646001 7.354C0.599513 7.30751 0.562637 7.25232 0.537477 7.19158C0.512318 7.13084 0.499369 7.06574 0.499369 7C0.499369 6.93426 0.512318 6.86916 0.537477 6.80842C0.562637 6.74768 0.599513 6.69249 0.646001 6.646L3.293 4L0.646001 1.354C0.599438 1.30755 0.562495 1.25238 0.537288 1.19163C0.512082 1.13089 0.499107 1.06577 0.499107 1C0.499107 0.934233 0.512082 0.869111 0.537288 0.808366C0.562495 0.747621 0.599438 0.692446 0.646001 0.646Z" fill="white"/>
</svg>
