<svg width="8" height="8" viewBox="0 0 8 8" fill="none" xmlns="http://www.w3.org/2000/svg">
<path d="M0.646894 0.645917C0.693339 0.599354 0.748515 0.562411 0.80926 0.537204C0.870005 0.511998 0.935126 0.499023 1.00089 0.499023C1.06666 0.499023 1.13178 0.511998 1.19253 0.537204C1.25327 0.562411 1.30845 0.599354 1.35489 0.645917L4.00089 3.29292L6.64689 0.645917C6.69338 0.599429 6.74857 0.562553 6.80931 0.537394C6.87005 0.512234 6.93515 0.499285 7.00089 0.499285C7.06664 0.499285 7.13174 0.512234 7.19248 0.537394C7.25322 0.562553 7.30841 0.599429 7.35489 0.645917C7.40138 0.692405 7.43826 0.747594 7.46342 0.808333C7.48858 0.869073 7.50152 0.934173 7.50152 0.999917C7.50152 1.06566 7.48858 1.13076 7.46342 1.1915C7.43826 1.25224 7.40138 1.30743 7.35489 1.35392L4.70789 3.99992L7.35489 6.64592C7.40138 6.6924 7.43826 6.74759 7.46342 6.80833C7.48858 6.86907 7.50152 6.93417 7.50152 6.99992C7.50152 7.06566 7.48858 7.13076 7.46342 7.1915C7.43826 7.25224 7.40138 7.30743 7.35489 7.35392C7.30841 7.40041 7.25322 7.43728 7.19248 7.46244C7.13174 7.4876 7.06664 7.50055 7.00089 7.50055C6.93515 7.50055 6.87005 7.4876 6.80931 7.46244C6.74857 7.43728 6.69338 7.40041 6.64689 7.35392L4.00089 4.70692L1.35489 7.35392C1.30841 7.40041 1.25322 7.43728 1.19248 7.46244C1.13174 7.4876 1.06664 7.50055 1.00089 7.50055C0.93515 7.50055 0.870049 7.4876 0.80931 7.46244C0.748571 7.43728 0.693381 7.40041 0.646894 7.35392C0.600406 7.30743 0.563529 7.25224 0.53837 7.1915C0.513211 7.13076 0.500262 7.06566 0.500262 6.99992C0.500262 6.93417 0.513211 6.86907 0.53837 6.80833C0.563529 6.74759 0.600406 6.6924 0.646894 6.64592L3.29389 3.99992L0.646894 1.35392C0.60033 1.30747 0.563387 1.2523 0.538181 1.19155C0.512974 1.13081 0.5 1.06568 0.5 0.999917C0.5 0.93415 0.512974 0.869028 0.538181 0.808283C0.563387 0.747538 0.60033 0.692363 0.646894 0.645917Z" fill="black"/>
</svg>
