<svg width="20" height="20" viewBox="0 0 20 20" fill="none" xmlns="http://www.w3.org/2000/svg">
<path d="M11.7525 1.5C12.1625 1.5 12.5025 1.84 12.5025 2.25V7.5H17.7525C18.1625 7.5 18.5025 7.84 18.5025 8.25C18.5025 8.66 18.1625 9 17.7525 9H11.7525C11.3425 9 11.0025 8.66 11.0025 8.25V2.25C11.0025 1.84 11.3425 1.5 11.7525 1.5Z" fill="white"/>
<path d="M2.7475 10.5025H8.7475C9.1575 10.5025 9.4975 10.8425 9.4975 11.2525V17.2525C9.4975 17.6625 9.1575 18.0025 8.7475 18.0025C8.3375 18.0025 7.9975 17.6625 7.9975 17.2525V12.0025H2.7475C2.3375 12.0025 1.9975 11.6625 1.9975 11.2525C1.9975 10.8425 2.3375 10.5025 2.7475 10.5025Z" fill="white"/>
<path d="M19.2525 0C19.4425 0 19.6325 0.07 19.7825 0.22C20.0725 0.51 20.0725 0.99 19.7825 1.28L12.2825 8.78C11.9925 9.07 11.5125 9.07 11.2225 8.78C10.9325 8.49 10.9325 8.01 11.2225 7.72L18.7225 0.22C18.8725 0.07 19.0625 0 19.2525 0Z" fill="white"/>
<path d="M8.7475 10.5025C8.9375 10.5025 9.1275 10.5725 9.2775 10.7225C9.5675 11.0125 9.5675 11.4925 9.2775 11.7825L1.7775 19.2825C1.4875 19.5725 1.0075 19.5725 0.7175 19.2825C0.4275 18.9925 0.4275 18.5125 0.7175 18.2225L8.2175 10.7225C8.3675 10.5725 8.5575 10.5025 8.7475 10.5025Z" fill="white"/>
</svg>
