<svg width="24" height="24" viewBox="0 0 24 24" fill="none" xmlns="http://www.w3.org/2000/svg">
<path d="M13.2525 3.5C13.6625 3.5 14.0025 3.84 14.0025 4.25V9.5H19.2525C19.6625 9.5 20.0025 9.84 20.0025 10.25C20.0025 10.66 19.6625 11 19.2525 11H13.2525C12.8425 11 12.5025 10.66 12.5025 10.25V4.25C12.5025 3.84 12.8425 3.5 13.2525 3.5Z" fill="white"/>
<path d="M4.2475 12.5025H10.2475C10.6575 12.5025 10.9975 12.8425 10.9975 13.2525V19.2525C10.9975 19.6625 10.6575 20.0025 10.2475 20.0025C9.8375 20.0025 9.4975 19.6625 9.4975 19.2525V14.0025H4.2475C3.8375 14.0025 3.4975 13.6625 3.4975 13.2525C3.4975 12.8425 3.8375 12.5025 4.2475 12.5025Z" fill="white"/>
<path d="M20.7525 2C20.9425 2 21.1325 2.07 21.2825 2.22C21.5725 2.51 21.5725 2.99 21.2825 3.28L13.7825 10.78C13.4925 11.07 13.0125 11.07 12.7225 10.78C12.4325 10.49 12.4325 10.01 12.7225 9.72L20.2225 2.22C20.3725 2.07 20.5625 2 20.7525 2Z" fill="white"/>
<path d="M10.2475 12.5025C10.4375 12.5025 10.6275 12.5725 10.7775 12.7225C11.0675 13.0125 11.0675 13.4925 10.7775 13.7825L3.2775 21.2825C2.9875 21.5725 2.5075 21.5725 2.2175 21.2825C1.9275 20.9925 1.9275 20.5125 2.2175 20.2225L9.7175 12.7225C9.8675 12.5725 10.0575 12.5025 10.2475 12.5025Z" fill="white"/>
</svg>
