<svg width="20" height="20" viewBox="0 0 20 20" fill="none" xmlns="http://www.w3.org/2000/svg">
<g clip-path="url(#clip0_51_254)">
<path d="M10.05 16.4598C9.85156 16.4575 9.66166 16.3787 9.51996 16.2398L3.81997 10.5298C3.69488 10.3934 3.62549 10.215 3.62549 10.0298C3.62549 9.84466 3.69488 9.66626 3.81997 9.52976L12.21 0.999786C12.3505 0.859095 12.5412 0.779955 12.74 0.779785H18.49C18.6863 0.779785 18.8745 0.857745 19.0133 0.996525C19.152 1.13531 19.23 1.32353 19.23 1.51979L19.3 7.19979C19.3003 7.40167 19.2213 7.59559 19.08 7.73979L10.57 16.2498C10.4282 16.3811 10.2432 16.4558 10.05 16.4598ZM5.39997 9.99976L10.05 14.6398L17.8 6.88979L17.75 2.26979H13.06L5.39997 9.99976Z" fill="black"/>
<path d="M12.8501 19.2503C12.7513 19.2525 12.6531 19.2341 12.5619 19.1962C12.4706 19.1583 12.3883 19.1018 12.3201 19.0303L1.02014 7.74029C0.887655 7.59812 0.815535 7.41007 0.818965 7.21577C0.822395 7.02147 0.901105 6.83608 1.03852 6.69867C1.17593 6.56126 1.36132 6.48254 1.55562 6.47912C1.74992 6.47569 1.93797 6.54781 2.08014 6.68029L13.3801 18.0003C13.5206 18.1409 13.5994 18.3315 13.5994 18.5303C13.5994 18.729 13.5206 18.9196 13.3801 19.0603C13.2354 19.1909 13.0449 19.2592 12.8501 19.2503Z" fill="black"/>
<path d="M5.00016 19.1902C4.81648 19.1869 4.63967 19.1197 4.50016 19.0002L1.05016 15.5502C0.978996 15.4775 0.922916 15.3916 0.885156 15.2972C0.847396 15.2028 0.828706 15.1018 0.830156 15.0002C0.830156 14.5902 0.830156 14.5802 4.95016 10.5802C5.09079 10.4397 5.28141 10.3608 5.48016 10.3608C5.67892 10.3608 5.86954 10.4397 6.01016 10.5802C6.15062 10.7208 6.2295 10.9114 6.2295 11.1102C6.2295 11.3089 6.15062 11.4995 6.01016 11.6402C4.72017 12.9102 3.32016 14.2902 2.62016 15.0002L5.00016 17.3802L8.36016 14.0002C8.42911 13.9294 8.51156 13.8732 8.60256 13.8348C8.69356 13.7964 8.79136 13.7766 8.89016 13.7766C8.98896 13.7766 9.08676 13.7964 9.17776 13.8348C9.26876 13.8732 9.35126 13.9294 9.42016 14.0002C9.56066 14.1408 9.63946 14.3314 9.63946 14.5302C9.63946 14.7289 9.56066 14.9195 9.42016 15.0602L5.50016 19.0002C5.36156 19.1212 5.18418 19.1886 5.00016 19.1902Z" fill="black"/>
</g>
<defs>
<clipPath id="clip0_51_254">
<rect width="20" height="20" fill="white"/>
</clipPath>
</defs>
</svg>
