<svg width="21" height="20" viewBox="0 0 21 20" fill="none" xmlns="http://www.w3.org/2000/svg">
<path d="M19.5 7.75C19.09 7.75 18.75 7.41 18.75 7V1.75H13.5C13.09 1.75 12.75 1.41 12.75 1C12.75 0.59 13.09 0.25 13.5 0.25H19.5C19.91 0.25 20.25 0.59 20.25 1V7C20.25 7.41 19.91 7.75 19.5 7.75Z" fill="white"/>
<path d="M7.5 19.75H1.5C1.09 19.75 0.75 19.41 0.75 19V13C0.75 12.59 1.09 12.25 1.5 12.25C1.91 12.25 2.25 12.59 2.25 13V18.25H7.5C7.91 18.25 8.25 18.59 8.25 19C8.25 19.41 7.91 19.75 7.5 19.75Z" fill="white"/>
<path d="M11.9999 9.2499C11.8099 9.2499 11.6199 9.1799 11.4699 9.0299C11.1799 8.7399 11.1799 8.2599 11.4699 7.96994L18.9699 0.46994C19.2599 0.17994 19.7399 0.17994 20.0299 0.46994C20.3199 0.759939 20.3199 1.23994 20.0299 1.52994L12.5299 9.0299C12.3799 9.1799 12.1899 9.2499 11.9999 9.2499Z" fill="white"/>
<path d="M1.49994 19.7499C1.30994 19.7499 1.11994 19.6799 0.969941 19.5299C0.679941 19.2399 0.679941 18.7599 0.969941 18.4699L8.46994 10.9699C8.7599 10.6799 9.2399 10.6799 9.5299 10.9699C9.8199 11.2599 9.8199 11.7399 9.5299 12.0299L2.02994 19.5299C1.87994 19.6799 1.68994 19.7499 1.49994 19.7499Z" fill="white"/>
</svg>
