<svg width="23" height="22" viewBox="0 0 23 22" fill="none" xmlns="http://www.w3.org/2000/svg">
<path d="M11.5 21.75C5.57 21.75 0.75 16.93 0.75 11C0.75 5.07 5.57 0.25 11.5 0.25C17.43 0.25 22.25 5.07 22.25 11C22.25 16.93 17.43 21.75 11.5 21.75ZM11.5 1.75C6.4 1.75 2.25 5.9 2.25 11C2.25 16.1 6.4 20.25 11.5 20.25C16.6 20.25 20.75 16.1 20.75 11C20.75 5.9 16.6 1.75 11.5 1.75Z" fill="white"/>
<path d="M8.50023 20.75H7.50023C7.09023 20.75 6.75023 20.41 6.75023 20C6.75023 19.59 7.07023 19.26 7.48023 19.25C5.91023 13.89 5.91023 8.11 7.48023 2.75C7.07023 2.74 6.75023 2.41 6.75023 2C6.75023 1.59 7.09023 1.25 7.50023 1.25H8.50023C8.74023 1.25 8.97023 1.37 9.11023 1.56C9.25023 1.76 9.29023 2.01 9.21023 2.24C7.33023 7.89 7.33023 14.11 9.21023 19.77C9.29023 20 9.25023 20.25 9.11023 20.45C8.97023 20.63 8.74023 20.75 8.50023 20.75Z" fill="white"/>
<path d="M14.4999 20.7502C14.4199 20.7502 14.3399 20.7402 14.2599 20.7102C13.8699 20.5802 13.6499 20.1502 13.7899 19.7602C15.6699 14.1102 15.6699 7.89018 13.7899 2.23018C13.6599 1.84018 13.8699 1.41018 14.2599 1.28018C14.6599 1.15018 15.0799 1.36018 15.2099 1.75018C17.1999 7.71018 17.1999 14.2702 15.2099 20.2202C15.1099 20.5502 14.8099 20.7502 14.4999 20.7502Z" fill="white"/>
<path d="M11.5 16.1998C8.71 16.1998 5.93 15.8098 3.25 15.0198C3.24 15.4198 2.91 15.7498 2.5 15.7498C2.09 15.7498 1.75 15.4098 1.75 14.9998V13.9998C1.75 13.7598 1.87 13.5298 2.06 13.3898C2.26 13.2498 2.51 13.2098 2.74 13.2898C8.39 15.1698 14.62 15.1698 20.27 13.2898C20.5 13.2098 20.75 13.2498 20.95 13.3898C21.15 13.5298 21.26 13.7598 21.26 13.9998V14.9998C21.26 15.4098 20.92 15.7498 20.51 15.7498C20.1 15.7498 19.77 15.4298 19.76 15.0198C17.07 15.8098 14.29 16.1998 11.5 16.1998Z" fill="white"/>
<path d="M20.4998 8.74986C20.4198 8.74986 20.3398 8.73986 20.2598 8.70986C14.6098 6.82986 8.37978 6.82986 2.72978 8.70986C2.32978 8.83986 1.90978 8.62986 1.77978 8.23986C1.65978 7.83986 1.86978 7.41986 2.25978 7.28986C8.21978 5.29986 14.7798 5.29986 20.7298 7.28986C21.1198 7.41986 21.3398 7.84986 21.1998 8.23986C21.1098 8.54986 20.8098 8.74986 20.4998 8.74986Z" fill="white"/>
</svg>
