<svg width="21" height="21" viewBox="0 0 21 21" fill="none" xmlns="http://www.w3.org/2000/svg">
<g clip-path="url(#clip0_51_258)">
<path d="M13.1688 1H10.6499H7.43098C7.1429 1 6.90936 1.24003 6.90936 1.53611V7.43333H1.17153C0.883442 7.43333 0.649902 7.67336 0.649902 7.96944V13.8667C0.649902 14.1627 0.883442 14.4028 1.17153 14.4028H6.90936V19.7639C6.90936 20.0599 7.1429 20.3 7.43098 20.3H13.1688C13.4569 20.3 13.6904 20.0599 13.6904 19.7639V14.4028H19.4283C19.7163 14.4028 19.9499 14.1627 19.9499 13.8667V7.96944C19.9499 7.67336 19.7163 7.43333 19.4283 7.43333H13.6904V1.53611C13.6904 1.24003 13.4569 1 13.1688 1Z" stroke="black" stroke-width="1.3"/>
</g>
<defs>
<clipPath id="clip0_51_258">
<rect width="21" height="21" fill="white"/>
</clipPath>
</defs>
</svg>
