<svg width="21" height="21" viewBox="0 0 21 21" fill="none" xmlns="http://www.w3.org/2000/svg">
<path d="M13.1689 1H10.65H7.43107C7.14299 1 6.90945 1.24003 6.90945 1.53611V7.43333H1.17162C0.883534 7.43333 0.649994 7.67336 0.649994 7.96944V13.8667C0.649994 14.1627 0.883534 14.4028 1.17162 14.4028H6.90945V19.7639C6.90945 20.0599 7.14299 20.3 7.43107 20.3H13.1689C13.457 20.3 13.6905 20.0599 13.6905 19.7639V14.4028H19.4284C19.7164 14.4028 19.95 14.1627 19.95 13.8667V7.96944C19.95 7.67336 19.7164 7.43333 19.4284 7.43333H13.6905V1.53611C13.6905 1.24003 13.457 1 13.1689 1Z" stroke="white" stroke-width="1.3"/>
</svg>
