<svg width="1116" height="1116" viewBox="0 0 1116 1116" fill="none" xmlns="http://www.w3.org/2000/svg">
<g clip-path="url(#clip0_61_353)">
<path d="M374.819 307.886C388.139 298.113 402.27 289.379 417.091 281.803C434.947 272.674 453.805 265.228 473.455 259.669C500.33 252.068 528.691 248 558 248C586.475 248 614.052 251.84 640.245 259.028C671.433 267.588 700.658 280.9 727.091 298.134M298.133 388.91C266.426 437.539 248 495.618 248 558C248 621.991 267.389 681.455 300.613 730.834M806.362 372.451C845.072 424.186 868 488.416 868 558C868 626.529 845.765 689.862 808.114 741.182M374.819 811.636C431.181 853.91 485.086 868 558 868C623.112 868 683.535 847.927 733.419 813.629" stroke="black" stroke-width="5" stroke-linecap="round" stroke-linejoin="round"/>
<path d="M503.414 51.9594C530.351 49.0002 557.589 48.1838 584.856 49.5759C617.708 51.2531 650.605 56.1422 683.078 64.3609C727.49 75.6047 771.114 93.0875 812.75 117.126C853.2 140.48 889.226 168.553 920.54 200.246C957.823 237.985 988.421 280.864 1011.84 327.025M328.025 104.164C243.1 147.239 169.29 214.632 118.126 303.25C65.6437 394.152 44.4174 494.527 51.1151 591.921M1063.49 497.612C1076.05 602.854 1055.94 712.901 998.874 811.75C942.669 909.099 859.139 980.831 763.564 1022.85M90.2577 767.567C135.652 873.845 200.671 938.073 304.25 997.874C396.746 1051.28 499.044 1072.32 598.037 1064.51" stroke="black" stroke-width="2" stroke-linecap="round" stroke-linejoin="round"/>
<path d="M557.999 971.334C786.277 971.334 971.333 786.278 971.333 558C971.333 329.723 786.277 144.667 557.999 144.667C329.722 144.667 144.666 329.723 144.666 558C144.666 786.278 329.722 971.334 557.999 971.334Z" stroke="black" stroke-width="80"/>
<path d="M46.3477 72.834L313.296 187.915L161.429 339.783L46.3477 72.834Z" fill="black"/>
<rect x="456" y="461" width="191.261" height="191.261" transform="rotate(0.9722 456 461)" fill="black"/>
<path d="M944.718 156.88L878.314 280.234L821.363 223.283L944.718 156.88Z" fill="black"/>
<path d="M136.215 965.385L202.618 842.032L259.568 898.983L136.215 965.385Z" fill="black"/>
<path d="M1024.37 1045.03L757.419 929.952L909.288 778.083L1024.37 1045.03Z" fill="black"/>
<path d="M316 324L549.816 475.15L783.633 324L632.483 557.816L783.633 791.633L549.816 640.483L316 791.633L467.15 557.816L316 324Z" fill="black"/>
<g filter="url(#filter0_d_61_353)">
<rect x="513.139" y="521.139" width="72.7207" height="72.7207" fill="black"/>
<path d="M429 437L549.499 526.158L669.998 437L580.84 557.499L669.998 677.998L549.499 588.84L429 677.998L518.158 557.499L429 437Z" fill="url(#paint0_radial_61_353)"/>
</g>
<path d="M558 268.667L573.345 315.322L620 330.667L573.345 346.012L558 392.667L542.655 346.012L496 330.667L542.655 315.322L558 268.667Z" fill="black"/>
<path d="M785.333 496L800.678 542.655L847.333 558L800.678 573.345L785.333 620L769.988 573.345L723.333 558L769.988 542.655L785.333 496Z" fill="black"/>
<path d="M558 723.333L573.345 769.988L620 785.333L573.345 800.679L558 847.334L542.655 800.679L496 785.333L542.655 769.988L558 723.333Z" fill="black"/>
<path d="M330.668 496L346.013 542.655L392.668 558L346.013 573.345L330.668 620L315.325 573.345L268.668 558L315.325 542.655L330.668 496Z" fill="black"/>
</g>
<defs>
<filter id="filter0_d_61_353" x="425" y="437" width="248.998" height="248.998" filterUnits="userSpaceOnUse" color-interpolation-filters="sRGB">
<feFlood flood-opacity="0" result="BackgroundImageFix"/>
<feColorMatrix in="SourceAlpha" type="matrix" values="0 0 0 0 0 0 0 0 0 0 0 0 0 0 0 0 0 0 127 0" result="hardAlpha"/>
<feOffset dy="4"/>
<feGaussianBlur stdDeviation="2"/>
<feComposite in2="hardAlpha" operator="out"/>
<feColorMatrix type="matrix" values="0 0 0 0 0 0 0 0 0 0 0 0 0 0 0 0 0 0 0.25 0"/>
<feBlend mode="normal" in2="BackgroundImageFix" result="effect1_dropShadow_61_353"/>
<feBlend mode="normal" in="SourceGraphic" in2="effect1_dropShadow_61_353" result="shape"/>
</filter>
<radialGradient id="paint0_radial_61_353" cx="0" cy="0" r="1" gradientUnits="userSpaceOnUse" gradientTransform="translate(549 557) rotate(45.082) scale(247.134)">
<stop offset="0.215"/>
<stop offset="1"/>
</radialGradient>
<clipPath id="clip0_61_353">
<rect width="1116" height="1116" fill="white"/>
</clipPath>
</defs>
</svg>
