<svg width="54" height="54" viewBox="0 0 54 54" fill="none" xmlns="http://www.w3.org/2000/svg">
<g clip-path="url(#clip0_10_5)">
<path d="M18.1364 14.8977C18.7809 14.4248 19.4647 14.0022 20.1818 13.6356C21.0458 13.1939 21.9583 12.8336 22.9091 12.5646C24.2095 12.1968 25.5818 12 27 12C28.3778 12 29.7122 12.1858 30.9796 12.5336C32.4887 12.9478 33.9028 13.5919 35.1818 14.4258M14.4258 18.8182C12.8916 21.1712 12 23.9815 12 27C12 30.0963 12.9382 32.9736 14.5458 35.3629M39.0175 18.0218C40.8906 20.5251 42 23.633 42 27C42 30.3159 40.9241 33.3804 39.1023 35.8636M18.1364 39.2727C20.8636 41.3182 23.4719 42 27 42C30.1506 42 33.0743 41.0287 35.488 39.3691" stroke="white" stroke-linecap="round" stroke-linejoin="round"/>
<circle cx="27" cy="27" r="20" stroke="white" stroke-width="4"/>
<circle cx="27" cy="27" r="5.5" fill="white" stroke="white"/>
<path d="M2.24264 3.52421L15.1595 9.09263L7.81107 16.4411L2.24264 3.52421Z" fill="white"/>
<path d="M45.7122 7.59099L42.4991 13.5597L39.7434 10.804L45.7122 7.59099Z" fill="white"/>
<path d="M6.59102 46.7122L9.80407 40.7435L12.5597 43.4992L6.59102 46.7122Z" fill="white"/>
<path d="M49.5662 50.5661L36.6493 44.9977L43.9978 37.6492L49.5662 50.5661Z" fill="white"/>
<path d="M15.3137 15.6863L26.6274 23L37.9411 15.6863L30.6274 27L37.9411 38.3137L26.6274 31L15.3137 38.3137L22.6274 27L15.3137 15.6863Z" fill="white"/>
<path d="M27 13L27.7425 15.2575L30 16L27.7425 16.7425L27 19L26.2575 16.7425L24 16L26.2575 15.2575L27 13Z" fill="white"/>
<path d="M38 24L38.7425 26.2575L41 27L38.7425 27.7425L38 30L37.2575 27.7425L35 27L37.2575 26.2575L38 24Z" fill="white"/>
<path d="M27 35L27.7425 37.2575L30 38L27.7425 38.7425L27 41L26.2575 38.7425L24 38L26.2575 37.2575L27 35Z" fill="white"/>
<path d="M16.0001 24L16.7426 26.2575L19.0001 27L16.7426 27.7425L16.0001 30L15.2577 27.7425L13.0001 27L15.2577 26.2575L16.0001 24Z" fill="white"/>
</g>
<defs>
<clipPath id="clip0_10_5">
<rect width="54" height="54" fill="white"/>
</clipPath>
</defs>
</svg>
