<svg width="23" height="16" viewBox="0 0 23 16" fill="none" xmlns="http://www.w3.org/2000/svg">
<g clip-path="url(#clip0_51_262)">
<path d="M18.0298 15.2399H4.89982C4.74265 15.2413 4.58912 15.1926 4.46146 15.1009C4.33381 15.0093 4.23867 14.8793 4.18982 14.7299L0.999816 4.99994C0.950946 4.86003 0.945816 4.70855 0.985116 4.56565C1.02441 4.42275 1.10628 4.29519 1.21982 4.19994C1.33196 4.10155 1.47123 4.03935 1.61935 4.02151C1.76746 4.00366 1.91752 4.031 2.04982 4.09994L7.86982 6.99994L10.8698 1.17994C10.939 1.06392 11.0371 0.967836 11.1545 0.901116C11.272 0.834396 11.4047 0.799316 11.5398 0.799316C11.6749 0.799316 11.8076 0.834396 11.9251 0.901116C12.0425 0.967836 12.1406 1.06392 12.2098 1.17994L15.2098 7.00994L21.0398 4.10994C21.1706 4.04184 21.3189 4.01495 21.4653 4.0328C21.6117 4.05065 21.7492 4.11241 21.8598 4.20994C21.9555 4.31485 22.0195 4.4448 22.0443 4.58465C22.0691 4.7245 22.0537 4.86852 21.9998 4.99994L18.7398 14.7199C18.6927 14.8712 18.5983 15.0033 18.4705 15.0969C18.3427 15.1905 18.1882 15.2406 18.0298 15.2399ZM5.49982 13.7399H17.4998L20.0098 6.24994L15.1398 8.66994C15.0526 8.71454 14.9574 8.74144 14.8597 8.74894C14.7621 8.75654 14.6639 8.74454 14.5708 8.71384C14.4778 8.68314 14.3918 8.63434 14.3178 8.57014C14.2438 8.50594 14.1833 8.42774 14.1398 8.33994L11.4998 3.15994L8.86982 8.33994C8.8263 8.42774 8.76578 8.50594 8.69179 8.57014C8.6178 8.63434 8.53179 8.68314 8.43877 8.71384C8.34575 8.74454 8.24756 8.75654 8.14989 8.74894C8.05222 8.74144 7.95703 8.71454 7.86982 8.66994L2.97982 6.21994L5.49982 13.7399Z" fill="black"/>
</g>
<defs>
<clipPath id="clip0_51_262">
<rect width="23" height="16" fill="white"/>
</clipPath>
</defs>
</svg>
