<svg width="23" height="16" viewBox="0 0 23 16" fill="none" xmlns="http://www.w3.org/2000/svg">
<path d="M18.03 15.24H4.9C4.74283 15.2414 4.5893 15.1927 4.46164 15.101C4.33399 15.0094 4.23885 14.8794 4.19 14.73L0.999999 5C0.951129 4.86009 0.945999 4.70861 0.985299 4.56571C1.02459 4.42281 1.10646 4.29525 1.22 4.2C1.33214 4.10161 1.47141 4.03941 1.61953 4.02157C1.76764 4.00372 1.9177 4.03106 2.05 4.1L7.87 7L10.87 1.18C10.9392 1.06398 11.0373 0.967897 11.1547 0.901177C11.2722 0.834457 11.4049 0.799377 11.54 0.799377C11.6751 0.799377 11.8078 0.834457 11.9253 0.901177C12.0427 0.967897 12.1408 1.06398 12.21 1.18L15.21 7.01L21.04 4.11C21.1708 4.0419 21.3191 4.01501 21.4655 4.03286C21.6119 4.05071 21.7494 4.11247 21.86 4.21C21.9557 4.31491 22.0197 4.44486 22.0445 4.58471C22.0693 4.72456 22.0539 4.86858 22 5L18.74 14.72C18.6929 14.8713 18.5985 15.0034 18.4707 15.097C18.3429 15.1906 18.1884 15.2407 18.03 15.24ZM5.5 13.74H17.5L20.01 6.25L15.14 8.67C15.0528 8.7146 14.9576 8.7415 14.8599 8.749C14.7623 8.7566 14.6641 8.7446 14.571 8.7139C14.478 8.6832 14.392 8.6344 14.318 8.5702C14.244 8.506 14.1835 8.4278 14.14 8.34L11.5 3.16L8.87 8.34C8.82648 8.4278 8.76596 8.506 8.69197 8.5702C8.61798 8.6344 8.53197 8.6832 8.43895 8.7139C8.34593 8.7446 8.24774 8.7566 8.15007 8.749C8.0524 8.7415 7.95721 8.7146 7.87 8.67L2.98 6.22L5.5 13.74Z" fill="white"/>
</svg>
