<svg width="39" height="15" viewBox="0 0 39 15" fill="none" xmlns="http://www.w3.org/2000/svg">
<path d="M25.8647 14.3511C25.7867 14.7951 26.2247 15.1421 26.6107 14.9441L31.0007 12.6881L35.3897 14.9441C35.7757 15.1421 36.2137 14.7951 36.1357 14.3521L35.3057 9.62214L38.8277 6.26614C39.1577 5.95214 38.9877 5.37814 38.5457 5.31614L33.6477 4.62014L31.4637 0.293144C31.422 0.205433 31.3564 0.131327 31.2744 0.0794362C31.1923 0.0275455 31.0972 0 31.0002 0C30.9031 0 30.808 0.0275455 30.7259 0.0794362C30.6439 0.131327 30.5783 0.205433 30.5367 0.293144L28.3527 4.62114L23.4547 5.31714C23.0137 5.37914 22.8427 5.95314 23.1717 6.26714L26.6947 9.62314L25.8647 14.3531V14.3511ZM30.7697 11.5841L27.0837 13.4781L27.7777 9.52114C27.7944 9.43005 27.7882 9.33624 27.7598 9.24811C27.7313 9.15998 27.6815 9.08028 27.6147 9.01614L24.7087 6.24614L28.7607 5.67014C28.8444 5.65707 28.9238 5.62409 28.9922 5.57398C29.0606 5.52387 29.116 5.45808 29.1537 5.38214L30.9987 1.72414L32.8457 5.38214C32.8834 5.45808 32.9387 5.52387 33.0071 5.57398C33.0755 5.62409 33.1549 5.65707 33.2387 5.67014L37.2907 6.24514L34.3847 9.01514C34.3177 9.07938 34.2677 9.15925 34.2393 9.24757C34.2108 9.33589 34.2048 9.4299 34.2217 9.52114L34.9157 13.4781L31.2297 11.5841C31.1585 11.5472 31.0794 11.5278 30.9992 11.5278C30.9189 11.5278 30.8409 11.5472 30.7697 11.5841Z" fill="url(#paint0_linear_50_228)"/>
<path d="M23.4999 0C23.5909 2.55748e-05 23.6799 0.0258276 23.7567 0.0742188C23.8336 0.122637 23.8955 0.1916 23.9345 0.273438L25.9814 4.31152L28.2538 4.63281L25.2538 5.05859C25.2465 5.04659 25.2367 5.03607 25.2304 5.02344L23.498 1.60938L21.7685 5.02344C21.7331 5.0941 21.6811 5.15549 21.6171 5.20215C21.553 5.24881 21.4787 5.27981 21.4003 5.29199L17.6015 5.8291L20.3261 8.41406C20.3887 8.47389 20.4352 8.54864 20.4618 8.63086C20.4885 8.71311 20.4941 8.80073 20.4784 8.88574L19.828 12.5791L23.2841 10.8115C23.3508 10.777 23.4238 10.7588 23.4989 10.7588C23.5741 10.7588 23.648 10.777 23.7148 10.8115L26.2567 12.1113L26.0732 13.1582L23.4999 11.8418L19.3847 13.9473C19.0454 14.1203 18.6637 13.8461 18.6776 13.4697L18.6855 13.3955L19.4638 8.98047L16.161 5.84863C15.8527 5.55565 16.0124 5.01996 16.4257 4.96191L21.0175 4.3125L23.0653 0.273438C23.1043 0.191646 23.1662 0.122617 23.2431 0.0742188C23.3199 0.0258828 23.409 0 23.4999 0ZM26.6942 9.62109L26.6708 9.74902L26.6396 9.56934L26.6942 9.62109Z" fill="url(#paint1_linear_50_228)"/>
<path d="M16.9999 0C17.0846 3.69114e-05 17.1676 0.0236505 17.2392 0.0683594C17.3109 0.1133 17.3688 0.177957 17.4052 0.253906L19.3163 4.00391L21.0488 4.24707L21.0175 4.31152L18.6074 4.65137L16.998 1.49414L15.3837 4.66406C15.3508 4.72972 15.3028 4.78669 15.2431 4.83008C15.1833 4.87351 15.1133 4.90273 15.04 4.91406L11.495 5.41309L14.037 7.81348C14.0955 7.86906 14.1391 7.93827 14.164 8.01465C14.1889 8.091 14.1942 8.17206 14.1796 8.25098L13.5732 11.6797L16.7978 10.0391C16.8601 10.007 16.9287 9.99023 16.999 9.99023C17.069 9.99025 17.1379 10.0071 17.2001 10.0391L19.1054 11.0078L18.9345 11.9795L16.9999 10.9951L13.1591 12.9502C12.8425 13.1111 12.4861 12.8572 12.499 12.5078L12.5058 12.4385L13.2324 8.33984L10.1503 5.43066C9.86249 5.15857 10.0116 4.66121 10.3974 4.60742L14.6835 4.00488L16.5947 0.253906C16.6311 0.178024 16.688 0.11327 16.7597 0.0683594C16.8315 0.0234471 16.915 0 16.9999 0Z" fill="url(#paint2_linear_50_228)"/>
<path d="M11.4999 0C11.5787 1.91734e-05 11.656 0.0220068 11.7226 0.0634766C11.7892 0.104986 11.8431 0.164211 11.8769 0.234375L13.6513 3.69629L14.7607 3.85059L14.6835 4.00391L12.9677 4.24414L11.4989 1.37891L9.99992 4.30566C9.9693 4.36638 9.92362 4.41891 9.86809 4.45898C9.81266 4.49891 9.74844 4.52566 9.68059 4.53613L6.38762 4.99609L8.74895 7.21191C8.80312 7.26312 8.84398 7.32712 8.86711 7.39746C8.89021 7.46791 8.8953 7.54339 8.88176 7.61621L8.31731 10.7812L11.3124 9.2666C11.3703 9.23702 11.4338 9.22169 11.4989 9.22168C11.5641 9.22168 11.6286 9.23701 11.6864 9.2666L12.954 9.90723L12.7948 10.8047L11.4999 10.1494L7.93352 11.9541C7.62003 12.1124 7.26408 11.8354 7.32707 11.4805V11.4814L8.00188 7.69824L5.13957 5.01367C4.87228 4.76251 5.01082 4.30259 5.36906 4.25293L9.34856 3.69629L11.123 0.234375C11.1568 0.164211 11.2106 0.104986 11.2773 0.0634766C11.3439 0.0220485 11.4211 0 11.4999 0Z" fill="url(#paint3_linear_50_228)"/>
<path d="M5.9999 0C6.0726 2.42255e-05 6.14352 0.0206333 6.20498 0.0585938C6.26651 0.0966392 6.31636 0.150538 6.34756 0.214844L7.98525 3.3877L9.4042 3.58496L9.34854 3.69531L7.39736 3.96777C7.3931 3.96058 7.38748 3.95376 7.38369 3.94629L5.99893 1.26465L4.61514 3.94629C4.58692 4.00186 4.54519 4.05019 4.49404 4.08691C4.44276 4.12366 4.38304 4.14862 4.32022 4.1582L1.28115 4.58008L3.46084 6.61133C3.51084 6.65828 3.5479 6.71676 3.56924 6.78125C3.59055 6.84582 3.5954 6.91471 3.58291 6.98145L3.0624 9.88281L5.82705 8.49414C5.88036 8.4671 5.93887 8.45314 5.99893 8.45312C6.05903 8.45312 6.11843 8.46708 6.17178 8.49414L7.72061 9.27148L7.57412 10.0947L5.9999 9.30371L2.70791 10.958C2.41843 11.1032 2.08988 10.849 2.14834 10.5234V10.5244L2.77041 7.05664L0.128809 4.5957C-0.117914 4.36547 0.0100456 3.94494 0.340723 3.89941L4.01455 3.38867L5.65225 0.214844C5.68339 0.150705 5.73252 0.0966084 5.79385 0.0585938C5.85538 0.0205435 5.9271 0 5.9999 0Z" fill="url(#paint4_linear_50_228)"/>
<defs>
<linearGradient id="paint0_linear_50_228" x1="31.0001" y1="0" x2="31.0001" y2="15.0011" gradientUnits="userSpaceOnUse">
<stop stop-opacity="0"/>
<stop offset="0.4"/>
<stop offset="0.6"/>
<stop offset="1" stop-opacity="0"/>
</linearGradient>
<linearGradient id="paint1_linear_50_228" x1="22.1269" y1="0" x2="22.1269" y2="14.0003" gradientUnits="userSpaceOnUse">
<stop stop-opacity="0"/>
<stop offset="0.4"/>
<stop offset="0.6"/>
<stop offset="1" stop-opacity="0"/>
</linearGradient>
<linearGradient id="paint2_linear_50_228" x1="15.5244" y1="0" x2="15.5244" y2="12.9996" gradientUnits="userSpaceOnUse">
<stop stop-opacity="0"/>
<stop offset="0.4"/>
<stop offset="0.6"/>
<stop offset="1" stop-opacity="0"/>
</linearGradient>
<linearGradient id="paint3_linear_50_228" x1="9.88032" y1="0" x2="9.88032" y2="11.9997" gradientUnits="userSpaceOnUse">
<stop stop-opacity="0"/>
<stop offset="0.4"/>
<stop offset="0.6"/>
<stop offset="1" stop-opacity="0"/>
</linearGradient>
<linearGradient id="paint4_linear_50_228" x1="4.7021" y1="0" x2="4.7021" y2="10.9998" gradientUnits="userSpaceOnUse">
<stop stop-opacity="0"/>
<stop offset="0.4"/>
<stop offset="0.6"/>
<stop offset="1" stop-opacity="0"/>
</linearGradient>
</defs>
</svg>
