<svg width="26" height="28" viewBox="0 0 26 28" fill="none" xmlns="http://www.w3.org/2000/svg">
<path fill-rule="evenodd" clip-rule="evenodd" d="M7.13989 0.493172C7.41989 0.017172 8.03001 -0.141808 8.51001 0.138192L13.51 3.07618C13.74 3.21418 13.91 3.44419 13.97 3.71119C14.04 3.97819 13.9901 4.25819 13.8401 4.48719L10.8401 9.0492C10.5301 9.5112 9.90995 9.63919 9.44995 9.33619C8.98995 9.03219 8.85991 8.41218 9.15991 7.95118L11.02 5.12421C6.17002 6.04821 2.5 10.3152 2.5 15.4382C2.5 21.2372 7.2 25.9382 13 25.9382C18.8 25.9382 23.5 21.2372 23.5 15.4382C23.5 12.3632 22.1801 9.59919 20.0701 7.67719C19.6601 7.30519 19.64 6.67217 20.01 6.26417C20.38 5.85617 21.0099 5.82716 21.4199 6.19916C23.9299 8.48416 25.5 11.7782 25.5 15.4382C25.5 22.3412 19.9 27.9382 13 27.9382C6.1 27.9382 0.5 22.3412 0.5 15.4382C0.5 9.58318 4.51996 4.66916 9.95996 3.31116L7.48999 1.86219C7.01999 1.58219 6.85989 0.970172 7.13989 0.493172Z" fill="white"/>
</svg>
