<svg width="25" height="28" viewBox="0 0 25 28" fill="none" xmlns="http://www.w3.org/2000/svg">
<path fill-rule="evenodd" clip-rule="evenodd" d="M6.63989 0.492989C6.91989 0.0169891 7.53001 -0.141991 8.01001 0.138009L13.01 3.076C13.24 3.214 13.41 3.44401 13.47 3.71101C13.54 3.97801 13.4901 4.25801 13.3401 4.48701L10.3401 9.04902C10.0301 9.51102 9.40995 9.63901 8.94995 9.33601C8.48995 9.03201 8.35991 8.412 8.65991 7.951L10.52 5.12403C5.67002 6.04803 2 10.315 2 15.438C2 21.237 6.7 25.938 12.5 25.938C18.3 25.938 23 21.237 23 15.438C23 12.363 21.6801 9.59901 19.5701 7.67701C19.1601 7.30501 19.14 6.67199 19.51 6.26399C19.88 5.85599 20.5099 5.82698 20.9199 6.19898C23.4299 8.48398 25 11.778 25 15.438C25 22.341 19.4 27.938 12.5 27.938C5.6 27.938 0 22.341 0 15.438C0 9.583 4.01996 4.66898 9.45996 3.31098L6.98999 1.86201C6.51999 1.58201 6.35989 0.969989 6.63989 0.492989Z" fill="white"/>
</svg>
