<svg width="28" height="28" viewBox="0 0 28 28" fill="none" xmlns="http://www.w3.org/2000/svg">
<path fill-rule="evenodd" clip-rule="evenodd" d="M12.5 2C6.701 2 2 6.701 2 12.5C2 18.299 6.701 23 12.5 23C15.397 23 18.018 21.828 19.919 19.93C21.824 18.028 23 15.402 23 12.5C23 6.701 18.299 2 12.5 2ZM0 12.5C0 5.596 5.596 0 12.5 0C19.404 0 25 5.596 25 12.5C25 15.594 23.875 18.427 22.013 20.609L27.706 26.292C28.097 26.682 28.098 27.316 27.708 27.706C27.318 28.097 26.684 28.098 26.294 27.708L20.598 22.023C18.417 23.879 15.589 25 12.5 25C5.596 25 0 19.404 0 12.5Z" fill="white"/>
</svg>
