<svg width="29" height="28" viewBox="0 0 29 28" fill="none" xmlns="http://www.w3.org/2000/svg">
<path fill-rule="evenodd" clip-rule="evenodd" d="M13 2C7.201 2 2.5 6.701 2.5 12.5C2.5 18.299 7.201 23 13 23C15.897 23 18.518 21.828 20.419 19.93C22.324 18.028 23.5 15.402 23.5 12.5C23.5 6.701 18.799 2 13 2ZM0.5 12.5C0.5 5.596 6.096 0 13 0C19.904 0 25.5 5.596 25.5 12.5C25.5 15.594 24.375 18.427 22.513 20.609L28.206 26.292C28.597 26.682 28.598 27.316 28.208 27.706C27.818 28.097 27.184 28.098 26.794 27.708L21.098 22.023C18.917 23.879 16.089 25 13 25C6.096 25 0.5 19.404 0.5 12.5Z" fill="white"/>
</svg>
