<svg width="18" height="22" viewBox="0 0 18 22" fill="none" xmlns="http://www.w3.org/2000/svg">
<path d="M8.8 21.3777C0 19 0 11.09 0 11V4.52771C0.000562313 4.38414 0.0423213 4.24375 0.120317 4.12321C0.198312 4.00267 0.309266 3.90705 0.44 3.84771L8.44 0.0677119C8.54077 0.0230649 8.64978 0 8.76 0C8.87022 0 8.97923 0.0230649 9.08 0.0677119L17.13 3.84771C17.2589 3.9085 17.3677 4.00475 17.4439 4.12517C17.5201 4.2456 17.5603 4.38523 17.56 4.52771V11C17.6 11.07 17.5 19 8.8 21.3777ZM1.5 5.00771V11C1.5 11.3 2 18 8.8 19.8777C15.5 18 16.1 11.26 16.1 11V5.00771L8.8 1.57771L1.5 5.00771Z" fill="white"/>
</svg>
