<svg width="16" height="15" viewBox="0 0 16 15" fill="none" xmlns="http://www.w3.org/2000/svg">
<path d="M2.86465 14.3511C2.78665 14.7951 3.22465 15.1421 3.61065 14.9441L8.00065 12.6881L12.3897 14.9441C12.7757 15.1421 13.2137 14.7951 13.1357 14.3521L12.3057 9.62214L15.8277 6.26614C16.1577 5.95214 15.9877 5.37814 15.5457 5.31614L10.6477 4.62014L8.46365 0.293144C8.42205 0.205433 8.35641 0.131327 8.27436 0.0794362C8.19232 0.0275455 8.09723 0 8.00015 0C7.90308 0 7.80799 0.0275455 7.72594 0.0794362C7.6439 0.131327 7.57826 0.205433 7.53665 0.293144L5.35265 4.62114L0.454653 5.31714C0.0136534 5.37914 -0.157347 5.95314 0.171653 6.26714L3.69465 9.62314L2.86465 14.3531V14.3511ZM7.76965 11.5841L4.08365 13.4781L4.77765 9.52114C4.79436 9.43005 4.78821 9.33624 4.75977 9.24811C4.73132 9.15998 4.68146 9.08028 4.61465 9.01614L1.70865 6.24614L5.76065 5.67014C5.84442 5.65707 5.92383 5.62409 5.99221 5.57398C6.06059 5.52387 6.11596 5.45808 6.15365 5.38214L7.99865 1.72414L9.84565 5.38214C9.88335 5.45808 9.93871 5.52387 10.0071 5.57398C10.0755 5.62409 10.1549 5.65707 10.2387 5.67014L14.2907 6.24514L11.3847 9.01514C11.3177 9.07938 11.2677 9.15925 11.2393 9.24757C11.2108 9.33589 11.2048 9.4299 11.2217 9.52114L11.9157 13.4781L8.22965 11.5841C8.15845 11.5472 8.07939 11.5278 7.99915 11.5278C7.91892 11.5278 7.84086 11.5472 7.76965 11.5841Z" fill="white"/>
</svg>
