<svg width="20" height="20" viewBox="0 0 20 20" fill="none" xmlns="http://www.w3.org/2000/svg">
<path d="M10.05 16.46C9.8516 16.4577 9.6617 16.3789 9.52 16.24L3.82001 10.53C3.69492 10.3936 3.62553 10.2152 3.62553 10.03C3.62553 9.8449 3.69492 9.6665 3.82001 9.53L12.21 1.00003C12.3505 0.859339 12.5412 0.780199 12.74 0.780029H18.49C18.6863 0.780029 18.8745 0.857989 19.0133 0.996769C19.152 1.13555 19.23 1.32377 19.23 1.52003L19.3 7.20003C19.3003 7.40191 19.2213 7.59583 19.08 7.74003L10.57 16.25C10.4282 16.3813 10.2432 16.456 10.05 16.46ZM5.40001 10L10.05 14.64L17.8 6.89003L17.75 2.27003H13.06L5.40001 10Z" fill="white"/>
<path d="M12.85 19.2501C12.7512 19.2523 12.653 19.2339 12.5618 19.196C12.4705 19.1581 12.3882 19.1016 12.32 19.0301L1.02 7.74005C0.887519 7.59788 0.815399 7.40983 0.818829 7.21553C0.822259 7.02123 0.900969 6.83584 1.03838 6.69843C1.17579 6.56102 1.36118 6.4823 1.55548 6.47888C1.74978 6.47545 1.93783 6.54757 2.08 6.68005L13.38 18.0001C13.5205 18.1407 13.5993 18.3313 13.5993 18.5301C13.5993 18.7288 13.5205 18.9194 13.38 19.0601C13.2353 19.1907 13.0448 19.259 12.85 19.2501Z" fill="white"/>
<path d="M5 19.1901C4.81632 19.1868 4.63951 19.1196 4.5 19.0001L1.05 15.5501C0.97884 15.4774 0.92276 15.3915 0.885 15.2971C0.84724 15.2027 0.82855 15.1017 0.83 15.0001C0.83 14.5901 0.83 14.5801 4.95 10.5801C5.09063 10.4396 5.28125 10.3607 5.48 10.3607C5.67876 10.3607 5.86938 10.4396 6.01 10.5801C6.15046 10.7207 6.22934 10.9113 6.22934 11.1101C6.22934 11.3088 6.15046 11.4994 6.01 11.6401C4.72001 12.9101 3.32 14.2901 2.62 15.0001L5 17.3801L8.36 14.0001C8.42895 13.9293 8.5114 13.8731 8.6024 13.8347C8.6934 13.7963 8.7912 13.7765 8.89 13.7765C8.9888 13.7765 9.0866 13.7963 9.1776 13.8347C9.2686 13.8731 9.3511 13.9293 9.42 14.0001C9.5605 14.1407 9.6393 14.3313 9.6393 14.5301C9.6393 14.7288 9.5605 14.9194 9.42 15.0601L5.5 19.0001C5.3614 19.1211 5.18402 19.1885 5 19.1901Z" fill="white"/>
</svg>
