<svg width="19" height="22" viewBox="0 0 19 22" fill="none" xmlns="http://www.w3.org/2000/svg">
<g clip-path="url(#clip0_51_260)">
<path d="M9.3 21.3777C0.5 19 0.5 11.09 0.5 11V4.52771C0.500562 4.38414 0.542321 4.24375 0.620317 4.12321C0.698312 4.00267 0.809266 3.90705 0.94 3.84771L8.94 0.0677119C9.04077 0.0230649 9.14978 0 9.26 0C9.37022 0 9.47923 0.0230649 9.58 0.0677119L17.63 3.84771C17.7589 3.9085 17.8677 4.00475 17.9439 4.12517C18.0201 4.2456 18.0603 4.38523 18.06 4.52771V11C18.1 11.07 18 19 9.3 21.3777ZM2 5.00771V11C2 11.3 2.5 18 9.3 19.8777C16 18 16.6 11.26 16.6 11V5.00771L9.3 1.57771L2 5.00771Z" fill="black"/>
</g>
<defs>
<clipPath id="clip0_51_260">
<rect width="19" height="22" fill="white"/>
</clipPath>
</defs>
</svg>
